<mxfile host="www.draw.io" modified="2019-10-16T08:21:06.256Z" agent="Mozilla/5.0 (Macintosh; Intel Mac OS X 10_14_6) AppleWebKit/537.36 (KHTML, like Gecko) Chrome/77.0.3865.120 Safari/537.36" etag="Pma90zhEhX9mBWOsO43a" version="12.1.1" type="github" pages="1">
  <diagram id="q9JeP_DwEbJwOSlufIrP" name="Page-1">
    <mxGraphModel dx="1782" dy="529" grid="1" gridSize="10" guides="1" tooltips="1" connect="1" arrows="1" fold="1" page="1" pageScale="1" pageWidth="850" pageHeight="1100" math="0" shadow="0">
      <root>
        <mxCell id="0"/>
        <mxCell id="1" parent="0"/>
        <mxCell id="qlO1sHMZXiCxpGbSWCdw-1" value="" style="shape=card;whiteSpace=wrap;html=1;shadow=0;dashed=1;comic=0;strokeColor=#B3B3B3;gradientColor=none;fontSize=22;direction=east;flipV=0;flipH=1;perimeterSpacing=2;strokeWidth=2;" vertex="1" parent="1">
          <mxGeometry y="488" width="1077" height="582" as="geometry"/>
        </mxCell>
        <mxCell id="qlO1sHMZXiCxpGbSWCdw-2" value="" style="shape=card;whiteSpace=wrap;html=1;shadow=0;dashed=1;comic=0;strokeColor=#B3B3B3;gradientColor=none;fontSize=22;direction=east;flipV=0;flipH=1;perimeterSpacing=2;strokeWidth=2;" vertex="1" parent="1">
          <mxGeometry x="549" y="561" width="510" height="470" as="geometry"/>
        </mxCell>
        <mxCell id="qlO1sHMZXiCxpGbSWCdw-3" value="" style="shape=card;whiteSpace=wrap;html=1;shadow=0;dashed=1;comic=0;strokeColor=#B3B3B3;gradientColor=none;fontSize=22;direction=east;flipV=0;flipH=1;perimeterSpacing=2;strokeWidth=2;" vertex="1" parent="1">
          <mxGeometry x="16" y="562" width="510" height="469" as="geometry"/>
        </mxCell>
        <mxCell id="qlO1sHMZXiCxpGbSWCdw-4" value="" style="shape=card;whiteSpace=wrap;html=1;shadow=0;dashed=1;comic=0;strokeColor=#B3B3B3;gradientColor=none;fontSize=22;direction=east;flipV=0;flipH=1;perimeterSpacing=2;strokeWidth=2;" vertex="1" parent="1">
          <mxGeometry x="331" y="603.5" width="398" height="150" as="geometry"/>
        </mxCell>
        <mxCell id="qlO1sHMZXiCxpGbSWCdw-5" value="" style="group" vertex="1" connectable="0" parent="1">
          <mxGeometry x="233" y="863.5" width="93" height="111.99999999999989" as="geometry"/>
        </mxCell>
        <mxCell id="qlO1sHMZXiCxpGbSWCdw-6" value="" style="group" vertex="1" connectable="0" parent="qlO1sHMZXiCxpGbSWCdw-5">
          <mxGeometry width="93" height="111.99999999999989" as="geometry"/>
        </mxCell>
        <mxCell id="qlO1sHMZXiCxpGbSWCdw-7" value="&lt;font color=&quot;#333333&quot;&gt;&lt;span style=&quot;font-size: 16px&quot;&gt;ECS&lt;/span&gt;&lt;/font&gt;" style="rounded=0;whiteSpace=wrap;html=1;shadow=1;comic=0;strokeColor=#E6E6E6;strokeWidth=2;fillColor=#ffffff;gradientColor=none;fontSize=22;fontColor=#FFFFFF;verticalAlign=bottom;" vertex="1" parent="qlO1sHMZXiCxpGbSWCdw-6">
          <mxGeometry y="81.99999999999989" width="93" height="30" as="geometry"/>
        </mxCell>
        <mxCell id="qlO1sHMZXiCxpGbSWCdw-8" value="" style="shape=image;verticalLabelPosition=bottom;labelBackgroundColor=#ffffff;verticalAlign=top;aspect=fixed;imageAspect=0;image=data:image/svg+xml,PHN2ZyB4bWxucz0iaHR0cDovL3d3dy53My5vcmcvMjAwMC9zdmciIHZpZXdCb3g9IjAgMCA0MC43MSAzNi44NCI+PGRlZnM+PHN0eWxlPi5jbHMtMXtmaWxsOiNmZmY7c3Ryb2tlOiMyMzE4MTU7c3Ryb2tlLXdpZHRoOjAuNzhweDt9LmNscy0xLC5jbHMtNHtzdHJva2UtbWl0ZXJsaW1pdDoxMDt9LmNscy0ye2ZpbGw6I2VmZWZlZjt9LmNscy0ze2ZpbGw6I2RjZGRkZDt9LmNscy00e2ZpbGw6bm9uZTtzdHJva2U6Z3JheTtzdHJva2Utd2lkdGg6MC42OHB4O308L3N0eWxlPjwvZGVmcz48dGl0bGU+6LWE5rqQIDE4PC90aXRsZT48ZyBpZD0i5Zu+5bGCXzIiIGRhdGEtbmFtZT0i5Zu+5bGCIDIiPjxnIGlkPSLlm77lsYJfMS0yIiBkYXRhLW5hbWU9IuWbvuWxgiAxIj48cG9seWdvbiBjbGFzcz0iY2xzLTEiIHBvaW50cz0iNDAuMzEgMTIuODYgMjAuMzYgMC40NiAwLjQgMTIuODYgMC4zOSAyNC4wNSAyMC4zNCAzNi40NiAyMC4zNyAzNi40NiA0MC4zMyAyNC4wNSA0MC4zMSAxMi44NiIvPjxwb2x5Z29uIGNsYXNzPSJjbHMtMiIgcG9pbnRzPSIyMC40IDM2LjQzIDAuNDUgMjQuMDIgMC40NiAxMi44NCAyMC40MiAyNS4yNCAyMC40IDM2LjQzIi8+PHBvbHlnb24gY2xhc3M9ImNscy0zIiBwb2ludHM9IjIwLjQzIDM2LjQzIDQwLjM4IDI0LjAyIDQwLjM3IDEyLjg0IDIwLjQyIDI1LjI0IDIwLjQzIDM2LjQzIi8+PHBvbHlnb24gY2xhc3M9ImNscy00IiBwb2ludHM9IjQwLjMxIDEyLjg2IDIwLjM2IDAuNDYgMC40IDEyLjg2IDAuMzkgMjQuMDUgMjAuMzQgMzYuNDYgMjAuMzcgMzYuNDYgNDAuMzMgMjQuMDUgNDAuMzEgMTIuODYiLz48L2c+PC9nPjwvc3ZnPg==;" vertex="1" parent="qlO1sHMZXiCxpGbSWCdw-6">
          <mxGeometry x="1" width="90" height="81.22" as="geometry"/>
        </mxCell>
        <mxCell id="qlO1sHMZXiCxpGbSWCdw-9" value="" style="shape=image;verticalLabelPosition=bottom;labelBackgroundColor=#ffffff;verticalAlign=top;aspect=fixed;imageAspect=0;image=data:image/svg+xml,PHN2ZyB4bWxucz0iaHR0cDovL3d3dy53My5vcmcvMjAwMC9zdmciIHhtbG5zOnhsaW5rPSJodHRwOi8vd3d3LnczLm9yZy8xOTk5L3hsaW5rIiB0PSIxNTQzNDc0MjI5NDcxIiBjbGFzcz0iaWNvbiIgc3R5bGU9IiIgdmlld0JveD0iMCAwIDEwMjQgMTAyNCIgdmVyc2lvbj0iMS4xIiBwLWlkPSIxNjM4OSIgd2lkdGg9IjUwIiBoZWlnaHQ9IjUwIj48ZGVmcz48c3R5bGUgdHlwZT0idGV4dC9jc3MiLz48L2RlZnM+PHBhdGggZD0iTTg2NC42NjEgOTAzLjUzSDE4MC42MDhjLTQwLjg1MyAwLTczLjk0MS0yOS41NjctNzMuOTQxLTcwLjUwNnYtODIuMDI3YzAtNDAuODUzIDMzLjA4OC03MC40NDIgNzMuOTQxLTcwLjQ0Mmg2ODQuMDc1YzQwLjg1MyAwIDczLjk4NCAyOS41ODkgNzMuOTg0IDcwLjQ0MnY4Mi4wMjdjLTAuMDIyIDQwLjkzOS0zMy4xMzEgNzAuNTA3LTc0LjAwNiA3MC41MDd6IG0tODIuNjI0LTE2NC45OWE1My41NDcgNTMuNTQ3IDAgMCAwLTUzLjU0NiA1My40ODIgNTMuNTkgNTMuNTkgMCAwIDAgNTMuNTQ2IDUzLjU0NyA1My41MjUgNTMuNTI1IDAgMCAwIDAtMTA3LjAwOHogbTgyLjYyNC0xMTEuMzE4SDE4MC42MDhjLTQwLjg1My0wLjAyMS03My45NDEtMjkuNTY4LTczLjk0MS03MC40NDJ2LTgyLjA3YzAtNDAuODUzIDMzLjA4OC03MC40NDIgNzMuOTQxLTcwLjQ0Mmg2ODQuMDc1YzQwLjg1MyAwIDczLjk4NCAyOS41NDYgNzMuOTg0IDcwLjQ0MnY4Mi4wN2MtMC4wMjIgNDAuODc0LTMzLjEzMSA3MC40NDItNzQuMDA2IDcwLjQ0MnpNNzgyLjAzNyA0NjIuMjNhNTMuNjEgNTMuNjEgMCAwIDAtNTMuNTQ2IDUzLjYxMSA1My42NTMgNTMuNjUzIDAgMCAwIDUzLjU0NiA1My41NDcgNTMuNTkgNTMuNTkgMCAxIDAgMC0xMDcuMTc5eiBtODIuNjI0LTExMS4xMDRIMTgwLjYwOGMtNDAuODUzIDAtNzMuOTQxLTI5LjY5Ni03My45NDEtNzAuNTI4di04MS45ODRjMC00MC45MTcgMzMuMDg4LTcwLjYxMyA3My45NDEtNzAuNjEzaDY4NC4wNzVjNDAuODUzIDAgNzMuOTg0IDI5LjY5NiA3My45ODQgNzAuNjM1djgxLjk4NGMtMC4wMjIgNDAuODEtMzMuMTMxIDcwLjUwNi03NC4wMDYgNzAuNTA2ek03ODIuMDM3IDE4Ni4wN2E1My41OSA1My41OSAwIDAgMC01My41NDYgNTMuNTQ3IDUzLjU0NyA1My41NDcgMCAwIDAgMTA3LjA5MyAwIDUzLjU0NyA1My41NDcgMCAwIDAtNTMuNTQ3LTUzLjU0N3oiIGZpbGw9IiMwMEMxREUiIHAtaWQ9IjE2MzkwIi8+PC9zdmc+;" vertex="1" parent="qlO1sHMZXiCxpGbSWCdw-6">
          <mxGeometry x="28" y="11" width="36" height="36" as="geometry"/>
        </mxCell>
        <mxCell id="qlO1sHMZXiCxpGbSWCdw-10" value="" style="group" vertex="1" connectable="0" parent="1">
          <mxGeometry x="83" y="863.5" width="93" height="111.99999999999989" as="geometry"/>
        </mxCell>
        <mxCell id="qlO1sHMZXiCxpGbSWCdw-11" value="" style="group" vertex="1" connectable="0" parent="1">
          <mxGeometry x="739.5" y="863.5" width="93" height="111.99999999999989" as="geometry"/>
        </mxCell>
        <mxCell id="qlO1sHMZXiCxpGbSWCdw-12" value="" style="group" vertex="1" connectable="0" parent="qlO1sHMZXiCxpGbSWCdw-11">
          <mxGeometry width="93" height="111.99999999999989" as="geometry"/>
        </mxCell>
        <mxCell id="qlO1sHMZXiCxpGbSWCdw-13" value="&lt;font color=&quot;#333333&quot;&gt;&lt;span style=&quot;font-size: 16px&quot;&gt;ECS&lt;/span&gt;&lt;/font&gt;" style="rounded=0;whiteSpace=wrap;html=1;shadow=1;comic=0;strokeColor=#E6E6E6;strokeWidth=2;fillColor=#ffffff;gradientColor=none;fontSize=22;fontColor=#FFFFFF;verticalAlign=bottom;" vertex="1" parent="qlO1sHMZXiCxpGbSWCdw-12">
          <mxGeometry y="81.99999999999989" width="93" height="30" as="geometry"/>
        </mxCell>
        <mxCell id="qlO1sHMZXiCxpGbSWCdw-14" value="" style="shape=image;verticalLabelPosition=bottom;labelBackgroundColor=#ffffff;verticalAlign=top;aspect=fixed;imageAspect=0;image=data:image/svg+xml,PHN2ZyB4bWxucz0iaHR0cDovL3d3dy53My5vcmcvMjAwMC9zdmciIHZpZXdCb3g9IjAgMCA0MC43MSAzNi44NCI+PGRlZnM+PHN0eWxlPi5jbHMtMXtmaWxsOiNmZmY7c3Ryb2tlOiMyMzE4MTU7c3Ryb2tlLXdpZHRoOjAuNzhweDt9LmNscy0xLC5jbHMtNHtzdHJva2UtbWl0ZXJsaW1pdDoxMDt9LmNscy0ye2ZpbGw6I2VmZWZlZjt9LmNscy0ze2ZpbGw6I2RjZGRkZDt9LmNscy00e2ZpbGw6bm9uZTtzdHJva2U6Z3JheTtzdHJva2Utd2lkdGg6MC42OHB4O308L3N0eWxlPjwvZGVmcz48dGl0bGU+6LWE5rqQIDE4PC90aXRsZT48ZyBpZD0i5Zu+5bGCXzIiIGRhdGEtbmFtZT0i5Zu+5bGCIDIiPjxnIGlkPSLlm77lsYJfMS0yIiBkYXRhLW5hbWU9IuWbvuWxgiAxIj48cG9seWdvbiBjbGFzcz0iY2xzLTEiIHBvaW50cz0iNDAuMzEgMTIuODYgMjAuMzYgMC40NiAwLjQgMTIuODYgMC4zOSAyNC4wNSAyMC4zNCAzNi40NiAyMC4zNyAzNi40NiA0MC4zMyAyNC4wNSA0MC4zMSAxMi44NiIvPjxwb2x5Z29uIGNsYXNzPSJjbHMtMiIgcG9pbnRzPSIyMC40IDM2LjQzIDAuNDUgMjQuMDIgMC40NiAxMi44NCAyMC40MiAyNS4yNCAyMC40IDM2LjQzIi8+PHBvbHlnb24gY2xhc3M9ImNscy0zIiBwb2ludHM9IjIwLjQzIDM2LjQzIDQwLjM4IDI0LjAyIDQwLjM3IDEyLjg0IDIwLjQyIDI1LjI0IDIwLjQzIDM2LjQzIi8+PHBvbHlnb24gY2xhc3M9ImNscy00IiBwb2ludHM9IjQwLjMxIDEyLjg2IDIwLjM2IDAuNDYgMC40IDEyLjg2IDAuMzkgMjQuMDUgMjAuMzQgMzYuNDYgMjAuMzcgMzYuNDYgNDAuMzMgMjQuMDUgNDAuMzEgMTIuODYiLz48L2c+PC9nPjwvc3ZnPg==;" vertex="1" parent="qlO1sHMZXiCxpGbSWCdw-12">
          <mxGeometry x="1" width="90" height="81.22" as="geometry"/>
        </mxCell>
        <mxCell id="qlO1sHMZXiCxpGbSWCdw-15" value="" style="shape=image;verticalLabelPosition=bottom;labelBackgroundColor=#ffffff;verticalAlign=top;aspect=fixed;imageAspect=0;image=data:image/svg+xml,PHN2ZyB4bWxucz0iaHR0cDovL3d3dy53My5vcmcvMjAwMC9zdmciIHhtbG5zOnhsaW5rPSJodHRwOi8vd3d3LnczLm9yZy8xOTk5L3hsaW5rIiB0PSIxNTQzNDc0MjI5NDcxIiBjbGFzcz0iaWNvbiIgc3R5bGU9IiIgdmlld0JveD0iMCAwIDEwMjQgMTAyNCIgdmVyc2lvbj0iMS4xIiBwLWlkPSIxNjM4OSIgd2lkdGg9IjUwIiBoZWlnaHQ9IjUwIj48ZGVmcz48c3R5bGUgdHlwZT0idGV4dC9jc3MiLz48L2RlZnM+PHBhdGggZD0iTTg2NC42NjEgOTAzLjUzSDE4MC42MDhjLTQwLjg1MyAwLTczLjk0MS0yOS41NjctNzMuOTQxLTcwLjUwNnYtODIuMDI3YzAtNDAuODUzIDMzLjA4OC03MC40NDIgNzMuOTQxLTcwLjQ0Mmg2ODQuMDc1YzQwLjg1MyAwIDczLjk4NCAyOS41ODkgNzMuOTg0IDcwLjQ0MnY4Mi4wMjdjLTAuMDIyIDQwLjkzOS0zMy4xMzEgNzAuNTA3LTc0LjAwNiA3MC41MDd6IG0tODIuNjI0LTE2NC45OWE1My41NDcgNTMuNTQ3IDAgMCAwLTUzLjU0NiA1My40ODIgNTMuNTkgNTMuNTkgMCAwIDAgNTMuNTQ2IDUzLjU0NyA1My41MjUgNTMuNTI1IDAgMCAwIDAtMTA3LjAwOHogbTgyLjYyNC0xMTEuMzE4SDE4MC42MDhjLTQwLjg1My0wLjAyMS03My45NDEtMjkuNTY4LTczLjk0MS03MC40NDJ2LTgyLjA3YzAtNDAuODUzIDMzLjA4OC03MC40NDIgNzMuOTQxLTcwLjQ0Mmg2ODQuMDc1YzQwLjg1MyAwIDczLjk4NCAyOS41NDYgNzMuOTg0IDcwLjQ0MnY4Mi4wN2MtMC4wMjIgNDAuODc0LTMzLjEzMSA3MC40NDItNzQuMDA2IDcwLjQ0MnpNNzgyLjAzNyA0NjIuMjNhNTMuNjEgNTMuNjEgMCAwIDAtNTMuNTQ2IDUzLjYxMSA1My42NTMgNTMuNjUzIDAgMCAwIDUzLjU0NiA1My41NDcgNTMuNTkgNTMuNTkgMCAxIDAgMC0xMDcuMTc5eiBtODIuNjI0LTExMS4xMDRIMTgwLjYwOGMtNDAuODUzIDAtNzMuOTQxLTI5LjY5Ni03My45NDEtNzAuNTI4di04MS45ODRjMC00MC45MTcgMzMuMDg4LTcwLjYxMyA3My45NDEtNzAuNjEzaDY4NC4wNzVjNDAuODUzIDAgNzMuOTg0IDI5LjY5NiA3My45ODQgNzAuNjM1djgxLjk4NGMtMC4wMjIgNDAuODEtMzMuMTMxIDcwLjUwNi03NC4wMDYgNzAuNTA2ek03ODIuMDM3IDE4Ni4wN2E1My41OSA1My41OSAwIDAgMC01My41NDYgNTMuNTQ3IDUzLjU0NyA1My41NDcgMCAwIDAgMTA3LjA5MyAwIDUzLjU0NyA1My41NDcgMCAwIDAtNTMuNTQ3LTUzLjU0N3oiIGZpbGw9IiMwMEMxREUiIHAtaWQ9IjE2MzkwIi8+PC9zdmc+;" vertex="1" parent="qlO1sHMZXiCxpGbSWCdw-12">
          <mxGeometry x="28" y="11" width="36" height="36" as="geometry"/>
        </mxCell>
        <mxCell id="qlO1sHMZXiCxpGbSWCdw-16" value="" style="group" vertex="1" connectable="0" parent="1">
          <mxGeometry x="589.5" y="863.5" width="93" height="111.99999999999989" as="geometry"/>
        </mxCell>
        <mxCell id="qlO1sHMZXiCxpGbSWCdw-17" value="&lt;font style=&quot;font-size: 18px&quot;&gt;可用区1&lt;/font&gt;" style="text;html=1;resizable=0;points=[];autosize=1;align=left;verticalAlign=top;spacingTop=-4;" vertex="1" parent="1">
          <mxGeometry x="24" y="563.5" width="80" height="20" as="geometry"/>
        </mxCell>
        <mxCell id="qlO1sHMZXiCxpGbSWCdw-18" value="&lt;font style=&quot;font-size: 18px&quot;&gt;可用区2&lt;/font&gt;" style="text;html=1;resizable=0;points=[];autosize=1;align=left;verticalAlign=top;spacingTop=-4;" vertex="1" parent="1">
          <mxGeometry x="966" y="573.5" width="80" height="20" as="geometry"/>
        </mxCell>
        <mxCell id="qlO1sHMZXiCxpGbSWCdw-19" value="" style="group" vertex="1" connectable="0" parent="1">
          <mxGeometry x="784" width="93" height="113" as="geometry"/>
        </mxCell>
        <mxCell id="qlO1sHMZXiCxpGbSWCdw-20" value="" style="shape=image;verticalLabelPosition=bottom;labelBackgroundColor=#ffffff;verticalAlign=top;aspect=fixed;imageAspect=0;image=data:image/svg+xml,PHN2ZyB4bWxucz0iaHR0cDovL3d3dy53My5vcmcvMjAwMC9zdmciIHZpZXdCb3g9IjAgMCAzOS4wMSAzNy4wMSI+PGRlZnM+PHN0eWxlPi5jbHMtMXtmaWxsOiNmZmY7fS5jbHMtMSwuY2xzLTIsLmNscy00e3N0cm9rZTpncmF5O3N0cm9rZS1taXRlcmxpbWl0OjEwO30uY2xzLTEsLmNscy00e3N0cm9rZS13aWR0aDowLjgycHg7fS5jbHMtMiwuY2xzLTR7ZmlsbDpub25lO30uY2xzLTJ7c3Ryb2tlLXdpZHRoOjEuMDFweDt9LmNscy0ze2ZpbGw6I2RjZGRkZDt9PC9zdHlsZT48L2RlZnM+PHRpdGxlPui1hOa6kCAyNDwvdGl0bGU+PGcgaWQ9IuWbvuWxgl8yIiBkYXRhLW5hbWU9IuWbvuWxgiAyIj48ZyBpZD0i5Zu+5bGCXzEtMiIgZGF0YS1uYW1lPSLlm77lsYIgMSI+PHBhdGggY2xhc3M9ImNscy0xIiBkPSJNMzguNDgsMTUuODJjMC0uMjMsMC0uNDYsMC0uN0MzOC41MSw3LjA1LDMwLC41MSwxOS41MS41MVMuNTEsNy4wNS41MSwxNS4xMmMwLC4yOCwwLC41NSwwLC44M3Y1LjExYzAsLjI4LDAsLjU1LDAsLjgzLDAsOC4wNyw4LjUsMTQuNjIsMTksMTQuNjJzMTktNi41NSwxOS0xNC42MmMwLS4yNCwwLS40NywwLS43WiIvPjxwYXRoIGNsYXNzPSJjbHMtMiIgZD0iTTM4LjQ4LDE1LjgyYzAtLjIzLDAtLjQ2LDAtLjdDMzguNTEsNy4wNSwzMCwuNTEsMTkuNTEuNTFTLjUxLDcuMDUuNTEsMTUuMTJjMCwuMjgsMCwuNTUsMCwuODN2NS4xMWMwLC4yOCwwLC41NSwwLC44MywwLDguMDcsOC41LDE0LjYyLDE5LDE0LjYyczE5LTYuNTUsMTktMTQuNjJjMC0uMjQsMC0uNDcsMC0uN1oiLz48cG9seWdvbiBjbGFzcz0iY2xzLTMiIHBvaW50cz0iMzguNTEgMTIuNzEgMzguNTEgMTIuNzEgMzguNTEgMTIuNzEgMzguNTEgMTIuNzEiLz48cGF0aCBjbGFzcz0iY2xzLTMiIGQ9Ik0zOC41MSwxMi42N2gwdjBaIi8+PHBhdGggY2xhc3M9ImNscy0zIiBkPSJNMTkuNTEsMjcuMzNjLTEwLjUsMC0xOS02LjU0LTE5LTE0LjYxdi0uMDVoMFYyMS42aDBjLjExLDgsOC41NywxNC45MSwxOSwxNC45MXMxOC44OC02LjkyLDE5LTE0LjkxVjEyLjcyQzM4LjUxLDIwLjc5LDMwLDI3LjMzLDE5LjUxLDI3LjMzWiIvPjxwYXRoIGNsYXNzPSJjbHMtNCIgZD0iTTM4LjQ4LDE1LjgyYzAtLjIzLDAtLjQ2LDAtLjdDMzguNTEsNy4wNSwzMCwuNTEsMTkuNTEuNTFTLjUxLDcuMDUuNTEsMTUuMTJjMCwuMjgsMCwuNTUsMCwuODN2NS4xMWMwLC4yOCwwLC41NSwwLC44MywwLDguMDcsOC41LDE0LjYyLDE5LDE0LjYyczE5LTYuNTUsMTktMTQuNjJjMC0uMjQsMC0uNDcsMC0uN1oiLz48L2c+PC9nPjwvc3ZnPg==;" vertex="1" parent="qlO1sHMZXiCxpGbSWCdw-19">
          <mxGeometry x="6.499999999999943" width="80" height="75.9" as="geometry"/>
        </mxCell>
        <mxCell id="qlO1sHMZXiCxpGbSWCdw-21" value="&lt;font color=&quot;#333333&quot; style=&quot;font-size: 16px&quot;&gt;控制台&lt;/font&gt;" style="rounded=0;whiteSpace=wrap;html=1;shadow=1;comic=0;strokeColor=#E6E6E6;strokeWidth=2;fillColor=#ffffff;gradientColor=none;fontSize=22;fontColor=#FFFFFF;verticalAlign=bottom;" vertex="1" parent="qlO1sHMZXiCxpGbSWCdw-19">
          <mxGeometry y="83" width="93" height="30" as="geometry"/>
        </mxCell>
        <mxCell id="qlO1sHMZXiCxpGbSWCdw-22" value="" style="group" vertex="1" connectable="0" parent="1">
          <mxGeometry x="784.5" y="150" width="93" height="113" as="geometry"/>
        </mxCell>
        <mxCell id="qlO1sHMZXiCxpGbSWCdw-23" value="" style="shape=image;verticalLabelPosition=bottom;labelBackgroundColor=#ffffff;verticalAlign=top;aspect=fixed;imageAspect=0;image=data:image/svg+xml,PHN2ZyB4bWxucz0iaHR0cDovL3d3dy53My5vcmcvMjAwMC9zdmciIHZpZXdCb3g9IjAgMCAzOS4wMSAzNy4wMSI+PGRlZnM+PHN0eWxlPi5jbHMtMXtmaWxsOiNmZmY7fS5jbHMtMSwuY2xzLTIsLmNscy00e3N0cm9rZTpncmF5O3N0cm9rZS1taXRlcmxpbWl0OjEwO30uY2xzLTEsLmNscy00e3N0cm9rZS13aWR0aDowLjgycHg7fS5jbHMtMiwuY2xzLTR7ZmlsbDpub25lO30uY2xzLTJ7c3Ryb2tlLXdpZHRoOjEuMDFweDt9LmNscy0ze2ZpbGw6I2RjZGRkZDt9PC9zdHlsZT48L2RlZnM+PHRpdGxlPui1hOa6kCAyNDwvdGl0bGU+PGcgaWQ9IuWbvuWxgl8yIiBkYXRhLW5hbWU9IuWbvuWxgiAyIj48ZyBpZD0i5Zu+5bGCXzEtMiIgZGF0YS1uYW1lPSLlm77lsYIgMSI+PHBhdGggY2xhc3M9ImNscy0xIiBkPSJNMzguNDgsMTUuODJjMC0uMjMsMC0uNDYsMC0uN0MzOC41MSw3LjA1LDMwLC41MSwxOS41MS41MVMuNTEsNy4wNS41MSwxNS4xMmMwLC4yOCwwLC41NSwwLC44M3Y1LjExYzAsLjI4LDAsLjU1LDAsLjgzLDAsOC4wNyw4LjUsMTQuNjIsMTksMTQuNjJzMTktNi41NSwxOS0xNC42MmMwLS4yNCwwLS40NywwLS43WiIvPjxwYXRoIGNsYXNzPSJjbHMtMiIgZD0iTTM4LjQ4LDE1LjgyYzAtLjIzLDAtLjQ2LDAtLjdDMzguNTEsNy4wNSwzMCwuNTEsMTkuNTEuNTFTLjUxLDcuMDUuNTEsMTUuMTJjMCwuMjgsMCwuNTUsMCwuODN2NS4xMWMwLC4yOCwwLC41NSwwLC44MywwLDguMDcsOC41LDE0LjYyLDE5LDE0LjYyczE5LTYuNTUsMTktMTQuNjJjMC0uMjQsMC0uNDcsMC0uN1oiLz48cG9seWdvbiBjbGFzcz0iY2xzLTMiIHBvaW50cz0iMzguNTEgMTIuNzEgMzguNTEgMTIuNzEgMzguNTEgMTIuNzEgMzguNTEgMTIuNzEiLz48cGF0aCBjbGFzcz0iY2xzLTMiIGQ9Ik0zOC41MSwxMi42N2gwdjBaIi8+PHBhdGggY2xhc3M9ImNscy0zIiBkPSJNMTkuNTEsMjcuMzNjLTEwLjUsMC0xOS02LjU0LTE5LTE0LjYxdi0uMDVoMFYyMS42aDBjLjExLDgsOC41NywxNC45MSwxOSwxNC45MXMxOC44OC02LjkyLDE5LTE0LjkxVjEyLjcyQzM4LjUxLDIwLjc5LDMwLDI3LjMzLDE5LjUxLDI3LjMzWiIvPjxwYXRoIGNsYXNzPSJjbHMtNCIgZD0iTTM4LjQ4LDE1LjgyYzAtLjIzLDAtLjQ2LDAtLjdDMzguNTEsNy4wNSwzMCwuNTEsMTkuNTEuNTFTLjUxLDcuMDUuNTEsMTUuMTJjMCwuMjgsMCwuNTUsMCwuODN2NS4xMWMwLC4yOCwwLC41NSwwLC44MywwLDguMDcsOC41LDE0LjYyLDE5LDE0LjYyczE5LTYuNTUsMTktMTQuNjJjMC0uMjQsMC0uNDcsMC0uN1oiLz48L2c+PC9nPjwvc3ZnPg==;" vertex="1" parent="qlO1sHMZXiCxpGbSWCdw-22">
          <mxGeometry x="6.499999999999943" width="80" height="75.9" as="geometry"/>
        </mxCell>
        <mxCell id="qlO1sHMZXiCxpGbSWCdw-24" value="&lt;font color=&quot;#333333&quot; style=&quot;font-size: 16px&quot;&gt;API网关&lt;/font&gt;" style="rounded=0;whiteSpace=wrap;html=1;shadow=1;comic=0;strokeColor=#E6E6E6;strokeWidth=2;fillColor=#ffffff;gradientColor=none;fontSize=22;fontColor=#FFFFFF;verticalAlign=bottom;" vertex="1" parent="qlO1sHMZXiCxpGbSWCdw-22">
          <mxGeometry y="83" width="93" height="30" as="geometry"/>
        </mxCell>
        <mxCell id="qlO1sHMZXiCxpGbSWCdw-25" value="" style="group" vertex="1" connectable="0" parent="1">
          <mxGeometry x="791" y="300" width="93" height="113" as="geometry"/>
        </mxCell>
        <mxCell id="qlO1sHMZXiCxpGbSWCdw-26" value="" style="shape=image;verticalLabelPosition=bottom;labelBackgroundColor=#ffffff;verticalAlign=top;aspect=fixed;imageAspect=0;image=data:image/svg+xml,PHN2ZyB4bWxucz0iaHR0cDovL3d3dy53My5vcmcvMjAwMC9zdmciIHZpZXdCb3g9IjAgMCAzOS4wMSAzNy4wMSI+PGRlZnM+PHN0eWxlPi5jbHMtMXtmaWxsOiNmZmY7fS5jbHMtMSwuY2xzLTIsLmNscy00e3N0cm9rZTpncmF5O3N0cm9rZS1taXRlcmxpbWl0OjEwO30uY2xzLTEsLmNscy00e3N0cm9rZS13aWR0aDowLjgycHg7fS5jbHMtMiwuY2xzLTR7ZmlsbDpub25lO30uY2xzLTJ7c3Ryb2tlLXdpZHRoOjEuMDFweDt9LmNscy0ze2ZpbGw6I2RjZGRkZDt9PC9zdHlsZT48L2RlZnM+PHRpdGxlPui1hOa6kCAyNDwvdGl0bGU+PGcgaWQ9IuWbvuWxgl8yIiBkYXRhLW5hbWU9IuWbvuWxgiAyIj48ZyBpZD0i5Zu+5bGCXzEtMiIgZGF0YS1uYW1lPSLlm77lsYIgMSI+PHBhdGggY2xhc3M9ImNscy0xIiBkPSJNMzguNDgsMTUuODJjMC0uMjMsMC0uNDYsMC0uN0MzOC41MSw3LjA1LDMwLC41MSwxOS41MS41MVMuNTEsNy4wNS41MSwxNS4xMmMwLC4yOCwwLC41NSwwLC44M3Y1LjExYzAsLjI4LDAsLjU1LDAsLjgzLDAsOC4wNyw4LjUsMTQuNjIsMTksMTQuNjJzMTktNi41NSwxOS0xNC42MmMwLS4yNCwwLS40NywwLS43WiIvPjxwYXRoIGNsYXNzPSJjbHMtMiIgZD0iTTM4LjQ4LDE1LjgyYzAtLjIzLDAtLjQ2LDAtLjdDMzguNTEsNy4wNSwzMCwuNTEsMTkuNTEuNTFTLjUxLDcuMDUuNTEsMTUuMTJjMCwuMjgsMCwuNTUsMCwuODN2NS4xMWMwLC4yOCwwLC41NSwwLC44MywwLDguMDcsOC41LDE0LjYyLDE5LDE0LjYyczE5LTYuNTUsMTktMTQuNjJjMC0uMjQsMC0uNDcsMC0uN1oiLz48cG9seWdvbiBjbGFzcz0iY2xzLTMiIHBvaW50cz0iMzguNTEgMTIuNzEgMzguNTEgMTIuNzEgMzguNTEgMTIuNzEgMzguNTEgMTIuNzEiLz48cGF0aCBjbGFzcz0iY2xzLTMiIGQ9Ik0zOC41MSwxMi42N2gwdjBaIi8+PHBhdGggY2xhc3M9ImNscy0zIiBkPSJNMTkuNTEsMjcuMzNjLTEwLjUsMC0xOS02LjU0LTE5LTE0LjYxdi0uMDVoMFYyMS42aDBjLjExLDgsOC41NywxNC45MSwxOSwxNC45MXMxOC44OC02LjkyLDE5LTE0LjkxVjEyLjcyQzM4LjUxLDIwLjc5LDMwLDI3LjMzLDE5LjUxLDI3LjMzWiIvPjxwYXRoIGNsYXNzPSJjbHMtNCIgZD0iTTM4LjQ4LDE1LjgyYzAtLjIzLDAtLjQ2LDAtLjdDMzguNTEsNy4wNSwzMCwuNTEsMTkuNTEuNTFTLjUxLDcuMDUuNTEsMTUuMTJjMCwuMjgsMCwuNTUsMCwuODN2NS4xMWMwLC4yOCwwLC41NSwwLC44MywwLDguMDcsOC41LDE0LjYyLDE5LDE0LjYyczE5LTYuNTUsMTktMTQuNjJjMC0uMjQsMC0uNDcsMC0uN1oiLz48L2c+PC9nPjwvc3ZnPg==;" vertex="1" parent="qlO1sHMZXiCxpGbSWCdw-25">
          <mxGeometry x="6.499999999999943" width="80" height="75.9" as="geometry"/>
        </mxCell>
        <mxCell id="qlO1sHMZXiCxpGbSWCdw-27" value="&lt;font color=&quot;#333333&quot; style=&quot;font-size: 16px&quot;&gt;控制器&lt;/font&gt;" style="rounded=0;whiteSpace=wrap;html=1;shadow=1;comic=0;strokeColor=#E6E6E6;strokeWidth=2;fillColor=#ffffff;gradientColor=none;fontSize=22;fontColor=#FFFFFF;verticalAlign=bottom;" vertex="1" parent="qlO1sHMZXiCxpGbSWCdw-25">
          <mxGeometry y="83" width="93" height="30" as="geometry"/>
        </mxCell>
        <mxCell id="qlO1sHMZXiCxpGbSWCdw-28" value="&lt;font style=&quot;font-size: 18px&quot;&gt;控制通路&lt;/font&gt;" style="text;html=1;resizable=0;points=[];autosize=1;align=left;verticalAlign=top;spacingTop=-4;" vertex="1" parent="1">
          <mxGeometry x="58" y="121" width="90" height="20" as="geometry"/>
        </mxCell>
        <mxCell id="qlO1sHMZXiCxpGbSWCdw-29" value="&lt;font style=&quot;font-size: 18px&quot;&gt;数据通路&lt;/font&gt;" style="text;html=1;resizable=0;points=[];autosize=1;align=left;verticalAlign=top;spacingTop=-4;" vertex="1" parent="1">
          <mxGeometry x="59" y="160" width="90" height="20" as="geometry"/>
        </mxCell>
        <mxCell id="qlO1sHMZXiCxpGbSWCdw-30" style="edgeStyle=orthogonalEdgeStyle;rounded=0;html=1;labelBackgroundColor=none;startFill=1;startSize=4;endArrow=blockThin;endFill=1;endSize=4;jettySize=auto;orthogonalLoop=1;strokeColor=#00c1de;strokeWidth=2;fontSize=12;fontColor=#000000;align=center;dashed=0;" edge="1" parent="1">
          <mxGeometry relative="1" as="geometry">
            <mxPoint x="157.42857142857156" y="180" as="sourcePoint"/>
            <mxPoint x="316" y="180" as="targetPoint"/>
            <Array as="points">
              <mxPoint x="206" y="180"/>
              <mxPoint x="206" y="180"/>
            </Array>
          </mxGeometry>
        </mxCell>
        <mxCell id="qlO1sHMZXiCxpGbSWCdw-31" style="edgeStyle=orthogonalEdgeStyle;rounded=0;html=1;labelBackgroundColor=none;startFill=1;startSize=4;endArrow=blockThin;endFill=1;endSize=4;jettySize=auto;orthogonalLoop=1;strokeColor=#9E9E9E;strokeWidth=2;fontSize=12;fontColor=#000000;align=center;dashed=0;" edge="1" parent="1">
          <mxGeometry relative="1" as="geometry">
            <mxPoint x="156" y="130" as="sourcePoint"/>
            <mxPoint x="316" y="130" as="targetPoint"/>
          </mxGeometry>
        </mxCell>
        <mxCell id="qlO1sHMZXiCxpGbSWCdw-32" style="edgeStyle=orthogonalEdgeStyle;rounded=0;html=1;labelBackgroundColor=none;startFill=1;startSize=4;endArrow=blockThin;endFill=1;endSize=4;jettySize=auto;orthogonalLoop=1;strokeColor=#9E9E9E;strokeWidth=2;fontSize=12;fontColor=#000000;align=center;dashed=0;" edge="1" parent="1">
          <mxGeometry relative="1" as="geometry">
            <mxPoint x="836" y="110" as="sourcePoint"/>
            <mxPoint x="836" y="160" as="targetPoint"/>
            <Array as="points">
              <mxPoint x="836" y="120"/>
              <mxPoint x="836" y="120"/>
            </Array>
          </mxGeometry>
        </mxCell>
        <mxCell id="qlO1sHMZXiCxpGbSWCdw-33" style="edgeStyle=orthogonalEdgeStyle;rounded=0;html=1;labelBackgroundColor=none;startFill=1;startSize=4;endArrow=blockThin;endFill=1;endSize=4;jettySize=auto;orthogonalLoop=1;strokeColor=#9E9E9E;strokeWidth=2;fontSize=12;fontColor=#000000;align=center;dashed=0;" edge="1" parent="1">
          <mxGeometry relative="1" as="geometry">
            <mxPoint x="836" y="260" as="sourcePoint"/>
            <mxPoint x="836" y="310" as="targetPoint"/>
            <Array as="points">
              <mxPoint x="836" y="270"/>
              <mxPoint x="836" y="270"/>
            </Array>
          </mxGeometry>
        </mxCell>
        <mxCell id="qlO1sHMZXiCxpGbSWCdw-34" value="&lt;font style=&quot;font-size: 18px&quot;&gt;地域&lt;/font&gt;" style="text;html=1;resizable=0;points=[];autosize=1;align=left;verticalAlign=top;spacingTop=-4;" vertex="1" parent="1">
          <mxGeometry x="3.5" y="494" width="50" height="20" as="geometry"/>
        </mxCell>
        <mxCell id="qlO1sHMZXiCxpGbSWCdw-35" value="" style="group" vertex="1" connectable="0" parent="1">
          <mxGeometry x="362" y="608" width="93" height="140.5" as="geometry"/>
        </mxCell>
        <mxCell id="qlO1sHMZXiCxpGbSWCdw-36" value="" style="group" vertex="1" connectable="0" parent="qlO1sHMZXiCxpGbSWCdw-35">
          <mxGeometry width="93" height="140.5" as="geometry"/>
        </mxCell>
        <mxCell id="qlO1sHMZXiCxpGbSWCdw-37" value="&lt;font color=&quot;#333333&quot;&gt;&lt;span style=&quot;font-size: 16px&quot;&gt;SLB&lt;/span&gt;&lt;/font&gt;" style="rounded=0;whiteSpace=wrap;html=1;shadow=1;comic=0;strokeColor=#E6E6E6;strokeWidth=2;fillColor=#ffffff;gradientColor=none;fontSize=22;fontColor=#FFFFFF;verticalAlign=bottom;" vertex="1" parent="qlO1sHMZXiCxpGbSWCdw-36">
          <mxGeometry y="81.99999999999989" width="93" height="30" as="geometry"/>
        </mxCell>
        <mxCell id="qlO1sHMZXiCxpGbSWCdw-38" value="" style="shape=image;verticalLabelPosition=bottom;labelBackgroundColor=#ffffff;verticalAlign=top;aspect=fixed;imageAspect=0;image=data:image/svg+xml,PHN2ZyB4bWxucz0iaHR0cDovL3d3dy53My5vcmcvMjAwMC9zdmciIHZpZXdCb3g9IjAgMCA0MC43MSAzNi44NCI+PGRlZnM+PHN0eWxlPi5jbHMtMXtmaWxsOiNmZmY7c3Ryb2tlOiMyMzE4MTU7c3Ryb2tlLXdpZHRoOjAuNzhweDt9LmNscy0xLC5jbHMtNHtzdHJva2UtbWl0ZXJsaW1pdDoxMDt9LmNscy0ye2ZpbGw6I2VmZWZlZjt9LmNscy0ze2ZpbGw6I2RjZGRkZDt9LmNscy00e2ZpbGw6bm9uZTtzdHJva2U6Z3JheTtzdHJva2Utd2lkdGg6MC42OHB4O308L3N0eWxlPjwvZGVmcz48dGl0bGU+6LWE5rqQIDE4PC90aXRsZT48ZyBpZD0i5Zu+5bGCXzIiIGRhdGEtbmFtZT0i5Zu+5bGCIDIiPjxnIGlkPSLlm77lsYJfMS0yIiBkYXRhLW5hbWU9IuWbvuWxgiAxIj48cG9seWdvbiBjbGFzcz0iY2xzLTEiIHBvaW50cz0iNDAuMzEgMTIuODYgMjAuMzYgMC40NiAwLjQgMTIuODYgMC4zOSAyNC4wNSAyMC4zNCAzNi40NiAyMC4zNyAzNi40NiA0MC4zMyAyNC4wNSA0MC4zMSAxMi44NiIvPjxwb2x5Z29uIGNsYXNzPSJjbHMtMiIgcG9pbnRzPSIyMC40IDM2LjQzIDAuNDUgMjQuMDIgMC40NiAxMi44NCAyMC40MiAyNS4yNCAyMC40IDM2LjQzIi8+PHBvbHlnb24gY2xhc3M9ImNscy0zIiBwb2ludHM9IjIwLjQzIDM2LjQzIDQwLjM4IDI0LjAyIDQwLjM3IDEyLjg0IDIwLjQyIDI1LjI0IDIwLjQzIDM2LjQzIi8+PHBvbHlnb24gY2xhc3M9ImNscy00IiBwb2ludHM9IjQwLjMxIDEyLjg2IDIwLjM2IDAuNDYgMC40IDEyLjg2IDAuMzkgMjQuMDUgMjAuMzQgMzYuNDYgMjAuMzcgMzYuNDYgNDAuMzMgMjQuMDUgNDAuMzEgMTIuODYiLz48L2c+PC9nPjwvc3ZnPg==;" vertex="1" parent="qlO1sHMZXiCxpGbSWCdw-36">
          <mxGeometry x="1" width="90" height="81.22" as="geometry"/>
        </mxCell>
        <mxCell id="qlO1sHMZXiCxpGbSWCdw-39" value="" style="shape=image;verticalLabelPosition=bottom;labelBackgroundColor=#ffffff;verticalAlign=top;aspect=fixed;imageAspect=0;image=data:image/svg+xml,PHN2ZyB4bWxucz0iaHR0cDovL3d3dy53My5vcmcvMjAwMC9zdmciIGNsYXNzPSJpY29uIiB3aWR0aD0iNTBweCIgaGVpZ2h0PSI1MC4wMHB4IiB2aWV3Qm94PSIwIDAgMTAyNCAxMDI0IiB2ZXJzaW9uPSIxLjEiPjxwYXRoIGZpbGw9IiMwMGMxZGUiIGQ9Ik03NzYuMDQzIDU0OC42M2MtMjQuNzY4IDAuMTA2LTQ4LjEyOCA2LjM3OC02OS4xNDIgMTYuNDY5bC04OS40NS0xMzMuODY3YzMzLjM2NS0yOS43MzkgNTQuNjU2LTcyLjY4MyA1NC40LTEyMC43MDQtMC40MjctODkuMjM3LTczLjE5NS0xNjEuNjIxLTE2Mi40OTYtMTYxLjE5NS04OS4yOCAwLjQyNy0xNjEuNDMgNzMuNDk0LTE2MS4wMjQgMTYyLjYyNCAwLjIxMyA0OC4wNjQgMjEuOTczIDkwLjY4OCA1NS4zODEgMTIwLjI1NmwtODguMDQzIDEzNC42NzhjLTIxLjIwNS05Ljk2My00NC40MzctMTUuOTM2LTY5LjMzMy0xNS44My04OS4xNTIgMC4zNjMtMTYxLjQzIDczLjM2Ni0xNjEuMDAzIDE2Mi42MjQgMC4yOTkgODkuMTUyIDczLjE5NSAxNjEuNDUxIDE2Mi40OTYgMTYwLjk2IDgxLjQ1MS0wLjMyIDE0OC4wNTQtNjEuMjY5IDE1OC44Ny0xMzkuODRsMjEwLjczLTEuMDAyYzExLjQzNSA3OC41MDYgNzguNTkyIDEzOC44NTggMTYwLjEwNyAxMzguNTE3IDg5LjIzNy0wLjQyNyAxNjEuNDMtNzMuMzAxIDE2MS4xMy0xNjIuNTYtMC40NjktODkuMjM3LTczLjQ3MS0xNjEuNTM2LTE2Mi42MjMtMTYxLjEzeiBtLTE1OC44NyAxMzkuODRsLTIxMC43MyAwLjk2YTE2MS4xMyAxNjEuMTMgMCAwIDAtNTIuOTcxLTk3LjZMNDQxLjYgNDU3LjExYzIxLjE0MSA5Ljk2MiA0NC40MzcgMTYuMDQyIDY5LjI3IDE1LjgyOWExNTkuOTU3IDE1OS45NTcgMCAwIDAgNjkuMTYyLTE2LjM4NEw2NjkuNTI1IDU5MC40YTE2MC4zMiAxNjAuMzIgMCAwIDAtNTIuMzUyIDk4LjA3eiIvPjwvc3ZnPg==;" vertex="1" parent="qlO1sHMZXiCxpGbSWCdw-36">
          <mxGeometry x="29" y="10.5" width="36" height="36" as="geometry"/>
        </mxCell>
        <mxCell id="qlO1sHMZXiCxpGbSWCdw-40" value="&lt;font style=&quot;font-size: 18px&quot;&gt;Master&lt;/font&gt;" style="text;html=1;resizable=0;points=[];autosize=1;align=left;verticalAlign=top;spacingTop=-4;" vertex="1" parent="qlO1sHMZXiCxpGbSWCdw-36">
          <mxGeometry x="22" y="120.5" width="70" height="20" as="geometry"/>
        </mxCell>
        <mxCell id="qlO1sHMZXiCxpGbSWCdw-41" value="" style="group" vertex="1" connectable="0" parent="1">
          <mxGeometry x="582" y="611" width="93" height="111.99999999999989" as="geometry"/>
        </mxCell>
        <mxCell id="qlO1sHMZXiCxpGbSWCdw-42" value="" style="group" vertex="1" connectable="0" parent="qlO1sHMZXiCxpGbSWCdw-41">
          <mxGeometry width="93" height="111.99999999999989" as="geometry"/>
        </mxCell>
        <mxCell id="qlO1sHMZXiCxpGbSWCdw-43" value="&lt;font color=&quot;#333333&quot;&gt;&lt;span style=&quot;font-size: 16px&quot;&gt;SLB&lt;/span&gt;&lt;/font&gt;" style="rounded=0;whiteSpace=wrap;html=1;shadow=1;comic=0;strokeColor=#E6E6E6;strokeWidth=2;fillColor=#ffffff;gradientColor=none;fontSize=22;fontColor=#FFFFFF;verticalAlign=bottom;" vertex="1" parent="qlO1sHMZXiCxpGbSWCdw-42">
          <mxGeometry y="81.99999999999989" width="93" height="30" as="geometry"/>
        </mxCell>
        <mxCell id="qlO1sHMZXiCxpGbSWCdw-44" value="" style="shape=image;verticalLabelPosition=bottom;labelBackgroundColor=#ffffff;verticalAlign=top;aspect=fixed;imageAspect=0;image=data:image/svg+xml,PHN2ZyB4bWxucz0iaHR0cDovL3d3dy53My5vcmcvMjAwMC9zdmciIHZpZXdCb3g9IjAgMCA0MC43MSAzNi44NCI+PGRlZnM+PHN0eWxlPi5jbHMtMXtmaWxsOiNmZmY7c3Ryb2tlOiMyMzE4MTU7c3Ryb2tlLXdpZHRoOjAuNzhweDt9LmNscy0xLC5jbHMtNHtzdHJva2UtbWl0ZXJsaW1pdDoxMDt9LmNscy0ye2ZpbGw6I2VmZWZlZjt9LmNscy0ze2ZpbGw6I2RjZGRkZDt9LmNscy00e2ZpbGw6bm9uZTtzdHJva2U6Z3JheTtzdHJva2Utd2lkdGg6MC42OHB4O308L3N0eWxlPjwvZGVmcz48dGl0bGU+6LWE5rqQIDE4PC90aXRsZT48ZyBpZD0i5Zu+5bGCXzIiIGRhdGEtbmFtZT0i5Zu+5bGCIDIiPjxnIGlkPSLlm77lsYJfMS0yIiBkYXRhLW5hbWU9IuWbvuWxgiAxIj48cG9seWdvbiBjbGFzcz0iY2xzLTEiIHBvaW50cz0iNDAuMzEgMTIuODYgMjAuMzYgMC40NiAwLjQgMTIuODYgMC4zOSAyNC4wNSAyMC4zNCAzNi40NiAyMC4zNyAzNi40NiA0MC4zMyAyNC4wNSA0MC4zMSAxMi44NiIvPjxwb2x5Z29uIGNsYXNzPSJjbHMtMiIgcG9pbnRzPSIyMC40IDM2LjQzIDAuNDUgMjQuMDIgMC40NiAxMi44NCAyMC40MiAyNS4yNCAyMC40IDM2LjQzIi8+PHBvbHlnb24gY2xhc3M9ImNscy0zIiBwb2ludHM9IjIwLjQzIDM2LjQzIDQwLjM4IDI0LjAyIDQwLjM3IDEyLjg0IDIwLjQyIDI1LjI0IDIwLjQzIDM2LjQzIi8+PHBvbHlnb24gY2xhc3M9ImNscy00IiBwb2ludHM9IjQwLjMxIDEyLjg2IDIwLjM2IDAuNDYgMC40IDEyLjg2IDAuMzkgMjQuMDUgMjAuMzQgMzYuNDYgMjAuMzcgMzYuNDYgNDAuMzMgMjQuMDUgNDAuMzEgMTIuODYiLz48L2c+PC9nPjwvc3ZnPg==;" vertex="1" parent="qlO1sHMZXiCxpGbSWCdw-42">
          <mxGeometry x="1" width="90" height="81.22" as="geometry"/>
        </mxCell>
        <mxCell id="qlO1sHMZXiCxpGbSWCdw-45" value="" style="shape=image;verticalLabelPosition=bottom;labelBackgroundColor=#ffffff;verticalAlign=top;aspect=fixed;imageAspect=0;image=data:image/svg+xml,PHN2ZyB4bWxucz0iaHR0cDovL3d3dy53My5vcmcvMjAwMC9zdmciIGNsYXNzPSJpY29uIiB3aWR0aD0iNTBweCIgaGVpZ2h0PSI1MC4wMHB4IiB2aWV3Qm94PSIwIDAgMTAyNCAxMDI0IiB2ZXJzaW9uPSIxLjEiPjxwYXRoIGZpbGw9IiMwMGMxZGUiIGQ9Ik03NzYuMDQzIDU0OC42M2MtMjQuNzY4IDAuMTA2LTQ4LjEyOCA2LjM3OC02OS4xNDIgMTYuNDY5bC04OS40NS0xMzMuODY3YzMzLjM2NS0yOS43MzkgNTQuNjU2LTcyLjY4MyA1NC40LTEyMC43MDQtMC40MjctODkuMjM3LTczLjE5NS0xNjEuNjIxLTE2Mi40OTYtMTYxLjE5NS04OS4yOCAwLjQyNy0xNjEuNDMgNzMuNDk0LTE2MS4wMjQgMTYyLjYyNCAwLjIxMyA0OC4wNjQgMjEuOTczIDkwLjY4OCA1NS4zODEgMTIwLjI1NmwtODguMDQzIDEzNC42NzhjLTIxLjIwNS05Ljk2My00NC40MzctMTUuOTM2LTY5LjMzMy0xNS44My04OS4xNTIgMC4zNjMtMTYxLjQzIDczLjM2Ni0xNjEuMDAzIDE2Mi42MjQgMC4yOTkgODkuMTUyIDczLjE5NSAxNjEuNDUxIDE2Mi40OTYgMTYwLjk2IDgxLjQ1MS0wLjMyIDE0OC4wNTQtNjEuMjY5IDE1OC44Ny0xMzkuODRsMjEwLjczLTEuMDAyYzExLjQzNSA3OC41MDYgNzguNTkyIDEzOC44NTggMTYwLjEwNyAxMzguNTE3IDg5LjIzNy0wLjQyNyAxNjEuNDMtNzMuMzAxIDE2MS4xMy0xNjIuNTYtMC40NjktODkuMjM3LTczLjQ3MS0xNjEuNTM2LTE2Mi42MjMtMTYxLjEzeiBtLTE1OC44NyAxMzkuODRsLTIxMC43MyAwLjk2YTE2MS4xMyAxNjEuMTMgMCAwIDAtNTIuOTcxLTk3LjZMNDQxLjYgNDU3LjExYzIxLjE0MSA5Ljk2MiA0NC40MzcgMTYuMDQyIDY5LjI3IDE1LjgyOWExNTkuOTU3IDE1OS45NTcgMCAwIDAgNjkuMTYyLTE2LjM4NEw2NjkuNTI1IDU5MC40YTE2MC4zMiAxNjAuMzIgMCAwIDAtNTIuMzUyIDk4LjA3eiIvPjwvc3ZnPg==;" vertex="1" parent="qlO1sHMZXiCxpGbSWCdw-42">
          <mxGeometry x="29" y="10.5" width="36" height="36" as="geometry"/>
        </mxCell>
        <mxCell id="qlO1sHMZXiCxpGbSWCdw-46" value="&lt;font style=&quot;font-size: 18px&quot;&gt;Slave&lt;/font&gt;" style="text;html=1;resizable=0;points=[];autosize=1;align=left;verticalAlign=top;spacingTop=-4;" vertex="1" parent="1">
          <mxGeometry x="603" y="729.5" width="60" height="20" as="geometry"/>
        </mxCell>
        <mxCell id="qlO1sHMZXiCxpGbSWCdw-47" value="" style="group" vertex="1" connectable="0" parent="1">
          <mxGeometry x="96" y="864" width="93" height="111.99999999999989" as="geometry"/>
        </mxCell>
        <mxCell id="qlO1sHMZXiCxpGbSWCdw-48" value="" style="group" vertex="1" connectable="0" parent="qlO1sHMZXiCxpGbSWCdw-47">
          <mxGeometry width="93" height="111.99999999999989" as="geometry"/>
        </mxCell>
        <mxCell id="qlO1sHMZXiCxpGbSWCdw-49" value="&lt;font color=&quot;#333333&quot;&gt;&lt;span style=&quot;font-size: 16px&quot;&gt;ECS&lt;/span&gt;&lt;/font&gt;" style="rounded=0;whiteSpace=wrap;html=1;shadow=1;comic=0;strokeColor=#E6E6E6;strokeWidth=2;fillColor=#ffffff;gradientColor=none;fontSize=22;fontColor=#FFFFFF;verticalAlign=bottom;" vertex="1" parent="qlO1sHMZXiCxpGbSWCdw-48">
          <mxGeometry y="81.99999999999989" width="93" height="30" as="geometry"/>
        </mxCell>
        <mxCell id="qlO1sHMZXiCxpGbSWCdw-50" value="" style="shape=image;verticalLabelPosition=bottom;labelBackgroundColor=#ffffff;verticalAlign=top;aspect=fixed;imageAspect=0;image=data:image/svg+xml,PHN2ZyB4bWxucz0iaHR0cDovL3d3dy53My5vcmcvMjAwMC9zdmciIHZpZXdCb3g9IjAgMCA0MC43MSAzNi44NCI+PGRlZnM+PHN0eWxlPi5jbHMtMXtmaWxsOiNmZmY7c3Ryb2tlOiMyMzE4MTU7c3Ryb2tlLXdpZHRoOjAuNzhweDt9LmNscy0xLC5jbHMtNHtzdHJva2UtbWl0ZXJsaW1pdDoxMDt9LmNscy0ye2ZpbGw6I2VmZWZlZjt9LmNscy0ze2ZpbGw6I2RjZGRkZDt9LmNscy00e2ZpbGw6bm9uZTtzdHJva2U6Z3JheTtzdHJva2Utd2lkdGg6MC42OHB4O308L3N0eWxlPjwvZGVmcz48dGl0bGU+6LWE5rqQIDE4PC90aXRsZT48ZyBpZD0i5Zu+5bGCXzIiIGRhdGEtbmFtZT0i5Zu+5bGCIDIiPjxnIGlkPSLlm77lsYJfMS0yIiBkYXRhLW5hbWU9IuWbvuWxgiAxIj48cG9seWdvbiBjbGFzcz0iY2xzLTEiIHBvaW50cz0iNDAuMzEgMTIuODYgMjAuMzYgMC40NiAwLjQgMTIuODYgMC4zOSAyNC4wNSAyMC4zNCAzNi40NiAyMC4zNyAzNi40NiA0MC4zMyAyNC4wNSA0MC4zMSAxMi44NiIvPjxwb2x5Z29uIGNsYXNzPSJjbHMtMiIgcG9pbnRzPSIyMC40IDM2LjQzIDAuNDUgMjQuMDIgMC40NiAxMi44NCAyMC40MiAyNS4yNCAyMC40IDM2LjQzIi8+PHBvbHlnb24gY2xhc3M9ImNscy0zIiBwb2ludHM9IjIwLjQzIDM2LjQzIDQwLjM4IDI0LjAyIDQwLjM3IDEyLjg0IDIwLjQyIDI1LjI0IDIwLjQzIDM2LjQzIi8+PHBvbHlnb24gY2xhc3M9ImNscy00IiBwb2ludHM9IjQwLjMxIDEyLjg2IDIwLjM2IDAuNDYgMC40IDEyLjg2IDAuMzkgMjQuMDUgMjAuMzQgMzYuNDYgMjAuMzcgMzYuNDYgNDAuMzMgMjQuMDUgNDAuMzEgMTIuODYiLz48L2c+PC9nPjwvc3ZnPg==;" vertex="1" parent="qlO1sHMZXiCxpGbSWCdw-48">
          <mxGeometry x="1" width="90" height="81.22" as="geometry"/>
        </mxCell>
        <mxCell id="qlO1sHMZXiCxpGbSWCdw-51" value="" style="shape=image;verticalLabelPosition=bottom;labelBackgroundColor=#ffffff;verticalAlign=top;aspect=fixed;imageAspect=0;image=data:image/svg+xml,PHN2ZyB4bWxucz0iaHR0cDovL3d3dy53My5vcmcvMjAwMC9zdmciIHhtbG5zOnhsaW5rPSJodHRwOi8vd3d3LnczLm9yZy8xOTk5L3hsaW5rIiB0PSIxNTQzNDc0MjI5NDcxIiBjbGFzcz0iaWNvbiIgc3R5bGU9IiIgdmlld0JveD0iMCAwIDEwMjQgMTAyNCIgdmVyc2lvbj0iMS4xIiBwLWlkPSIxNjM4OSIgd2lkdGg9IjUwIiBoZWlnaHQ9IjUwIj48ZGVmcz48c3R5bGUgdHlwZT0idGV4dC9jc3MiLz48L2RlZnM+PHBhdGggZD0iTTg2NC42NjEgOTAzLjUzSDE4MC42MDhjLTQwLjg1MyAwLTczLjk0MS0yOS41NjctNzMuOTQxLTcwLjUwNnYtODIuMDI3YzAtNDAuODUzIDMzLjA4OC03MC40NDIgNzMuOTQxLTcwLjQ0Mmg2ODQuMDc1YzQwLjg1MyAwIDczLjk4NCAyOS41ODkgNzMuOTg0IDcwLjQ0MnY4Mi4wMjdjLTAuMDIyIDQwLjkzOS0zMy4xMzEgNzAuNTA3LTc0LjAwNiA3MC41MDd6IG0tODIuNjI0LTE2NC45OWE1My41NDcgNTMuNTQ3IDAgMCAwLTUzLjU0NiA1My40ODIgNTMuNTkgNTMuNTkgMCAwIDAgNTMuNTQ2IDUzLjU0NyA1My41MjUgNTMuNTI1IDAgMCAwIDAtMTA3LjAwOHogbTgyLjYyNC0xMTEuMzE4SDE4MC42MDhjLTQwLjg1My0wLjAyMS03My45NDEtMjkuNTY4LTczLjk0MS03MC40NDJ2LTgyLjA3YzAtNDAuODUzIDMzLjA4OC03MC40NDIgNzMuOTQxLTcwLjQ0Mmg2ODQuMDc1YzQwLjg1MyAwIDczLjk4NCAyOS41NDYgNzMuOTg0IDcwLjQ0MnY4Mi4wN2MtMC4wMjIgNDAuODc0LTMzLjEzMSA3MC40NDItNzQuMDA2IDcwLjQ0MnpNNzgyLjAzNyA0NjIuMjNhNTMuNjEgNTMuNjEgMCAwIDAtNTMuNTQ2IDUzLjYxMSA1My42NTMgNTMuNjUzIDAgMCAwIDUzLjU0NiA1My41NDcgNTMuNTkgNTMuNTkgMCAxIDAgMC0xMDcuMTc5eiBtODIuNjI0LTExMS4xMDRIMTgwLjYwOGMtNDAuODUzIDAtNzMuOTQxLTI5LjY5Ni03My45NDEtNzAuNTI4di04MS45ODRjMC00MC45MTcgMzMuMDg4LTcwLjYxMyA3My45NDEtNzAuNjEzaDY4NC4wNzVjNDAuODUzIDAgNzMuOTg0IDI5LjY5NiA3My45ODQgNzAuNjM1djgxLjk4NGMtMC4wMjIgNDAuODEtMzMuMTMxIDcwLjUwNi03NC4wMDYgNzAuNTA2ek03ODIuMDM3IDE4Ni4wN2E1My41OSA1My41OSAwIDAgMC01My41NDYgNTMuNTQ3IDUzLjU0NyA1My41NDcgMCAwIDAgMTA3LjA5MyAwIDUzLjU0NyA1My41NDcgMCAwIDAtNTMuNTQ3LTUzLjU0N3oiIGZpbGw9IiMwMEMxREUiIHAtaWQ9IjE2MzkwIi8+PC9zdmc+;" vertex="1" parent="qlO1sHMZXiCxpGbSWCdw-48">
          <mxGeometry x="28" y="11" width="36" height="36" as="geometry"/>
        </mxCell>
        <mxCell id="qlO1sHMZXiCxpGbSWCdw-52" value="" style="group" vertex="1" connectable="0" parent="1">
          <mxGeometry x="386" y="864" width="93" height="111.99999999999989" as="geometry"/>
        </mxCell>
        <mxCell id="qlO1sHMZXiCxpGbSWCdw-53" value="" style="group" vertex="1" connectable="0" parent="qlO1sHMZXiCxpGbSWCdw-52">
          <mxGeometry width="93" height="111.99999999999989" as="geometry"/>
        </mxCell>
        <mxCell id="qlO1sHMZXiCxpGbSWCdw-54" value="&lt;font color=&quot;#333333&quot;&gt;&lt;span style=&quot;font-size: 16px&quot;&gt;ECS&lt;/span&gt;&lt;/font&gt;" style="rounded=0;whiteSpace=wrap;html=1;shadow=1;comic=0;strokeColor=#E6E6E6;strokeWidth=2;fillColor=#ffffff;gradientColor=none;fontSize=22;fontColor=#FFFFFF;verticalAlign=bottom;" vertex="1" parent="qlO1sHMZXiCxpGbSWCdw-53">
          <mxGeometry y="81.99999999999989" width="93" height="30" as="geometry"/>
        </mxCell>
        <mxCell id="qlO1sHMZXiCxpGbSWCdw-55" value="" style="shape=image;verticalLabelPosition=bottom;labelBackgroundColor=#ffffff;verticalAlign=top;aspect=fixed;imageAspect=0;image=data:image/svg+xml,PHN2ZyB4bWxucz0iaHR0cDovL3d3dy53My5vcmcvMjAwMC9zdmciIHZpZXdCb3g9IjAgMCA0MC43MSAzNi44NCI+PGRlZnM+PHN0eWxlPi5jbHMtMXtmaWxsOiNmZmY7c3Ryb2tlOiMyMzE4MTU7c3Ryb2tlLXdpZHRoOjAuNzhweDt9LmNscy0xLC5jbHMtNHtzdHJva2UtbWl0ZXJsaW1pdDoxMDt9LmNscy0ye2ZpbGw6I2VmZWZlZjt9LmNscy0ze2ZpbGw6I2RjZGRkZDt9LmNscy00e2ZpbGw6bm9uZTtzdHJva2U6Z3JheTtzdHJva2Utd2lkdGg6MC42OHB4O308L3N0eWxlPjwvZGVmcz48dGl0bGU+6LWE5rqQIDE4PC90aXRsZT48ZyBpZD0i5Zu+5bGCXzIiIGRhdGEtbmFtZT0i5Zu+5bGCIDIiPjxnIGlkPSLlm77lsYJfMS0yIiBkYXRhLW5hbWU9IuWbvuWxgiAxIj48cG9seWdvbiBjbGFzcz0iY2xzLTEiIHBvaW50cz0iNDAuMzEgMTIuODYgMjAuMzYgMC40NiAwLjQgMTIuODYgMC4zOSAyNC4wNSAyMC4zNCAzNi40NiAyMC4zNyAzNi40NiA0MC4zMyAyNC4wNSA0MC4zMSAxMi44NiIvPjxwb2x5Z29uIGNsYXNzPSJjbHMtMiIgcG9pbnRzPSIyMC40IDM2LjQzIDAuNDUgMjQuMDIgMC40NiAxMi44NCAyMC40MiAyNS4yNCAyMC40IDM2LjQzIi8+PHBvbHlnb24gY2xhc3M9ImNscy0zIiBwb2ludHM9IjIwLjQzIDM2LjQzIDQwLjM4IDI0LjAyIDQwLjM3IDEyLjg0IDIwLjQyIDI1LjI0IDIwLjQzIDM2LjQzIi8+PHBvbHlnb24gY2xhc3M9ImNscy00IiBwb2ludHM9IjQwLjMxIDEyLjg2IDIwLjM2IDAuNDYgMC40IDEyLjg2IDAuMzkgMjQuMDUgMjAuMzQgMzYuNDYgMjAuMzcgMzYuNDYgNDAuMzMgMjQuMDUgNDAuMzEgMTIuODYiLz48L2c+PC9nPjwvc3ZnPg==;" vertex="1" parent="qlO1sHMZXiCxpGbSWCdw-53">
          <mxGeometry x="1" width="90" height="81.22" as="geometry"/>
        </mxCell>
        <mxCell id="qlO1sHMZXiCxpGbSWCdw-56" value="" style="shape=image;verticalLabelPosition=bottom;labelBackgroundColor=#ffffff;verticalAlign=top;aspect=fixed;imageAspect=0;image=data:image/svg+xml,PHN2ZyB4bWxucz0iaHR0cDovL3d3dy53My5vcmcvMjAwMC9zdmciIHhtbG5zOnhsaW5rPSJodHRwOi8vd3d3LnczLm9yZy8xOTk5L3hsaW5rIiB0PSIxNTQzNDc0MjI5NDcxIiBjbGFzcz0iaWNvbiIgc3R5bGU9IiIgdmlld0JveD0iMCAwIDEwMjQgMTAyNCIgdmVyc2lvbj0iMS4xIiBwLWlkPSIxNjM4OSIgd2lkdGg9IjUwIiBoZWlnaHQ9IjUwIj48ZGVmcz48c3R5bGUgdHlwZT0idGV4dC9jc3MiLz48L2RlZnM+PHBhdGggZD0iTTg2NC42NjEgOTAzLjUzSDE4MC42MDhjLTQwLjg1MyAwLTczLjk0MS0yOS41NjctNzMuOTQxLTcwLjUwNnYtODIuMDI3YzAtNDAuODUzIDMzLjA4OC03MC40NDIgNzMuOTQxLTcwLjQ0Mmg2ODQuMDc1YzQwLjg1MyAwIDczLjk4NCAyOS41ODkgNzMuOTg0IDcwLjQ0MnY4Mi4wMjdjLTAuMDIyIDQwLjkzOS0zMy4xMzEgNzAuNTA3LTc0LjAwNiA3MC41MDd6IG0tODIuNjI0LTE2NC45OWE1My41NDcgNTMuNTQ3IDAgMCAwLTUzLjU0NiA1My40ODIgNTMuNTkgNTMuNTkgMCAwIDAgNTMuNTQ2IDUzLjU0NyA1My41MjUgNTMuNTI1IDAgMCAwIDAtMTA3LjAwOHogbTgyLjYyNC0xMTEuMzE4SDE4MC42MDhjLTQwLjg1My0wLjAyMS03My45NDEtMjkuNTY4LTczLjk0MS03MC40NDJ2LTgyLjA3YzAtNDAuODUzIDMzLjA4OC03MC40NDIgNzMuOTQxLTcwLjQ0Mmg2ODQuMDc1YzQwLjg1MyAwIDczLjk4NCAyOS41NDYgNzMuOTg0IDcwLjQ0MnY4Mi4wN2MtMC4wMjIgNDAuODc0LTMzLjEzMSA3MC40NDItNzQuMDA2IDcwLjQ0MnpNNzgyLjAzNyA0NjIuMjNhNTMuNjEgNTMuNjEgMCAwIDAtNTMuNTQ2IDUzLjYxMSA1My42NTMgNTMuNjUzIDAgMCAwIDUzLjU0NiA1My41NDcgNTMuNTkgNTMuNTkgMCAxIDAgMC0xMDcuMTc5eiBtODIuNjI0LTExMS4xMDRIMTgwLjYwOGMtNDAuODUzIDAtNzMuOTQxLTI5LjY5Ni03My45NDEtNzAuNTI4di04MS45ODRjMC00MC45MTcgMzMuMDg4LTcwLjYxMyA3My45NDEtNzAuNjEzaDY4NC4wNzVjNDAuODUzIDAgNzMuOTg0IDI5LjY5NiA3My45ODQgNzAuNjM1djgxLjk4NGMtMC4wMjIgNDAuODEtMzMuMTMxIDcwLjUwNi03NC4wMDYgNzAuNTA2ek03ODIuMDM3IDE4Ni4wN2E1My41OSA1My41OSAwIDAgMC01My41NDYgNTMuNTQ3IDUzLjU0NyA1My41NDcgMCAwIDAgMTA3LjA5MyAwIDUzLjU0NyA1My41NDcgMCAwIDAtNTMuNTQ3LTUzLjU0N3oiIGZpbGw9IiMwMEMxREUiIHAtaWQ9IjE2MzkwIi8+PC9zdmc+;" vertex="1" parent="qlO1sHMZXiCxpGbSWCdw-53">
          <mxGeometry x="28" y="11" width="36" height="36" as="geometry"/>
        </mxCell>
        <mxCell id="qlO1sHMZXiCxpGbSWCdw-57" value="" style="group" vertex="1" connectable="0" parent="1">
          <mxGeometry x="589" y="864" width="93" height="111.99999999999989" as="geometry"/>
        </mxCell>
        <mxCell id="qlO1sHMZXiCxpGbSWCdw-58" value="" style="group" vertex="1" connectable="0" parent="qlO1sHMZXiCxpGbSWCdw-57">
          <mxGeometry width="93" height="111.99999999999989" as="geometry"/>
        </mxCell>
        <mxCell id="qlO1sHMZXiCxpGbSWCdw-59" value="&lt;font color=&quot;#333333&quot;&gt;&lt;span style=&quot;font-size: 16px&quot;&gt;ECS&lt;/span&gt;&lt;/font&gt;" style="rounded=0;whiteSpace=wrap;html=1;shadow=1;comic=0;strokeColor=#E6E6E6;strokeWidth=2;fillColor=#ffffff;gradientColor=none;fontSize=22;fontColor=#FFFFFF;verticalAlign=bottom;" vertex="1" parent="qlO1sHMZXiCxpGbSWCdw-58">
          <mxGeometry y="81.99999999999989" width="93" height="30" as="geometry"/>
        </mxCell>
        <mxCell id="qlO1sHMZXiCxpGbSWCdw-60" value="" style="shape=image;verticalLabelPosition=bottom;labelBackgroundColor=#ffffff;verticalAlign=top;aspect=fixed;imageAspect=0;image=data:image/svg+xml,PHN2ZyB4bWxucz0iaHR0cDovL3d3dy53My5vcmcvMjAwMC9zdmciIHZpZXdCb3g9IjAgMCA0MC43MSAzNi44NCI+PGRlZnM+PHN0eWxlPi5jbHMtMXtmaWxsOiNmZmY7c3Ryb2tlOiMyMzE4MTU7c3Ryb2tlLXdpZHRoOjAuNzhweDt9LmNscy0xLC5jbHMtNHtzdHJva2UtbWl0ZXJsaW1pdDoxMDt9LmNscy0ye2ZpbGw6I2VmZWZlZjt9LmNscy0ze2ZpbGw6I2RjZGRkZDt9LmNscy00e2ZpbGw6bm9uZTtzdHJva2U6Z3JheTtzdHJva2Utd2lkdGg6MC42OHB4O308L3N0eWxlPjwvZGVmcz48dGl0bGU+6LWE5rqQIDE4PC90aXRsZT48ZyBpZD0i5Zu+5bGCXzIiIGRhdGEtbmFtZT0i5Zu+5bGCIDIiPjxnIGlkPSLlm77lsYJfMS0yIiBkYXRhLW5hbWU9IuWbvuWxgiAxIj48cG9seWdvbiBjbGFzcz0iY2xzLTEiIHBvaW50cz0iNDAuMzEgMTIuODYgMjAuMzYgMC40NiAwLjQgMTIuODYgMC4zOSAyNC4wNSAyMC4zNCAzNi40NiAyMC4zNyAzNi40NiA0MC4zMyAyNC4wNSA0MC4zMSAxMi44NiIvPjxwb2x5Z29uIGNsYXNzPSJjbHMtMiIgcG9pbnRzPSIyMC40IDM2LjQzIDAuNDUgMjQuMDIgMC40NiAxMi44NCAyMC40MiAyNS4yNCAyMC40IDM2LjQzIi8+PHBvbHlnb24gY2xhc3M9ImNscy0zIiBwb2ludHM9IjIwLjQzIDM2LjQzIDQwLjM4IDI0LjAyIDQwLjM3IDEyLjg0IDIwLjQyIDI1LjI0IDIwLjQzIDM2LjQzIi8+PHBvbHlnb24gY2xhc3M9ImNscy00IiBwb2ludHM9IjQwLjMxIDEyLjg2IDIwLjM2IDAuNDYgMC40IDEyLjg2IDAuMzkgMjQuMDUgMjAuMzQgMzYuNDYgMjAuMzcgMzYuNDYgNDAuMzMgMjQuMDUgNDAuMzEgMTIuODYiLz48L2c+PC9nPjwvc3ZnPg==;" vertex="1" parent="qlO1sHMZXiCxpGbSWCdw-58">
          <mxGeometry x="1" width="90" height="81.22" as="geometry"/>
        </mxCell>
        <mxCell id="qlO1sHMZXiCxpGbSWCdw-61" value="" style="shape=image;verticalLabelPosition=bottom;labelBackgroundColor=#ffffff;verticalAlign=top;aspect=fixed;imageAspect=0;image=data:image/svg+xml,PHN2ZyB4bWxucz0iaHR0cDovL3d3dy53My5vcmcvMjAwMC9zdmciIHhtbG5zOnhsaW5rPSJodHRwOi8vd3d3LnczLm9yZy8xOTk5L3hsaW5rIiB0PSIxNTQzNDc0MjI5NDcxIiBjbGFzcz0iaWNvbiIgc3R5bGU9IiIgdmlld0JveD0iMCAwIDEwMjQgMTAyNCIgdmVyc2lvbj0iMS4xIiBwLWlkPSIxNjM4OSIgd2lkdGg9IjUwIiBoZWlnaHQ9IjUwIj48ZGVmcz48c3R5bGUgdHlwZT0idGV4dC9jc3MiLz48L2RlZnM+PHBhdGggZD0iTTg2NC42NjEgOTAzLjUzSDE4MC42MDhjLTQwLjg1MyAwLTczLjk0MS0yOS41NjctNzMuOTQxLTcwLjUwNnYtODIuMDI3YzAtNDAuODUzIDMzLjA4OC03MC40NDIgNzMuOTQxLTcwLjQ0Mmg2ODQuMDc1YzQwLjg1MyAwIDczLjk4NCAyOS41ODkgNzMuOTg0IDcwLjQ0MnY4Mi4wMjdjLTAuMDIyIDQwLjkzOS0zMy4xMzEgNzAuNTA3LTc0LjAwNiA3MC41MDd6IG0tODIuNjI0LTE2NC45OWE1My41NDcgNTMuNTQ3IDAgMCAwLTUzLjU0NiA1My40ODIgNTMuNTkgNTMuNTkgMCAwIDAgNTMuNTQ2IDUzLjU0NyA1My41MjUgNTMuNTI1IDAgMCAwIDAtMTA3LjAwOHogbTgyLjYyNC0xMTEuMzE4SDE4MC42MDhjLTQwLjg1My0wLjAyMS03My45NDEtMjkuNTY4LTczLjk0MS03MC40NDJ2LTgyLjA3YzAtNDAuODUzIDMzLjA4OC03MC40NDIgNzMuOTQxLTcwLjQ0Mmg2ODQuMDc1YzQwLjg1MyAwIDczLjk4NCAyOS41NDYgNzMuOTg0IDcwLjQ0MnY4Mi4wN2MtMC4wMjIgNDAuODc0LTMzLjEzMSA3MC40NDItNzQuMDA2IDcwLjQ0MnpNNzgyLjAzNyA0NjIuMjNhNTMuNjEgNTMuNjEgMCAwIDAtNTMuNTQ2IDUzLjYxMSA1My42NTMgNTMuNjUzIDAgMCAwIDUzLjU0NiA1My41NDcgNTMuNTkgNTMuNTkgMCAxIDAgMC0xMDcuMTc5eiBtODIuNjI0LTExMS4xMDRIMTgwLjYwOGMtNDAuODUzIDAtNzMuOTQxLTI5LjY5Ni03My45NDEtNzAuNTI4di04MS45ODRjMC00MC45MTcgMzMuMDg4LTcwLjYxMyA3My45NDEtNzAuNjEzaDY4NC4wNzVjNDAuODUzIDAgNzMuOTg0IDI5LjY5NiA3My45ODQgNzAuNjM1djgxLjk4NGMtMC4wMjIgNDAuODEtMzMuMTMxIDcwLjUwNi03NC4wMDYgNzAuNTA2ek03ODIuMDM3IDE4Ni4wN2E1My41OSA1My41OSAwIDAgMC01My41NDYgNTMuNTQ3IDUzLjU0NyA1My41NDcgMCAwIDAgMTA3LjA5MyAwIDUzLjU0NyA1My41NDcgMCAwIDAtNTMuNTQ3LTUzLjU0N3oiIGZpbGw9IiMwMEMxREUiIHAtaWQ9IjE2MzkwIi8+PC9zdmc+;" vertex="1" parent="qlO1sHMZXiCxpGbSWCdw-58">
          <mxGeometry x="28" y="11" width="36" height="36" as="geometry"/>
        </mxCell>
        <mxCell id="qlO1sHMZXiCxpGbSWCdw-62" value="" style="group" vertex="1" connectable="0" parent="1">
          <mxGeometry x="884" y="864" width="93" height="111.99999999999989" as="geometry"/>
        </mxCell>
        <mxCell id="qlO1sHMZXiCxpGbSWCdw-63" value="" style="group" vertex="1" connectable="0" parent="qlO1sHMZXiCxpGbSWCdw-62">
          <mxGeometry width="93" height="111.99999999999989" as="geometry"/>
        </mxCell>
        <mxCell id="qlO1sHMZXiCxpGbSWCdw-64" value="&lt;font color=&quot;#333333&quot;&gt;&lt;span style=&quot;font-size: 16px&quot;&gt;ECS&lt;/span&gt;&lt;/font&gt;" style="rounded=0;whiteSpace=wrap;html=1;shadow=1;comic=0;strokeColor=#E6E6E6;strokeWidth=2;fillColor=#ffffff;gradientColor=none;fontSize=22;fontColor=#FFFFFF;verticalAlign=bottom;" vertex="1" parent="qlO1sHMZXiCxpGbSWCdw-63">
          <mxGeometry y="81.99999999999989" width="93" height="30" as="geometry"/>
        </mxCell>
        <mxCell id="qlO1sHMZXiCxpGbSWCdw-65" value="" style="shape=image;verticalLabelPosition=bottom;labelBackgroundColor=#ffffff;verticalAlign=top;aspect=fixed;imageAspect=0;image=data:image/svg+xml,PHN2ZyB4bWxucz0iaHR0cDovL3d3dy53My5vcmcvMjAwMC9zdmciIHZpZXdCb3g9IjAgMCA0MC43MSAzNi44NCI+PGRlZnM+PHN0eWxlPi5jbHMtMXtmaWxsOiNmZmY7c3Ryb2tlOiMyMzE4MTU7c3Ryb2tlLXdpZHRoOjAuNzhweDt9LmNscy0xLC5jbHMtNHtzdHJva2UtbWl0ZXJsaW1pdDoxMDt9LmNscy0ye2ZpbGw6I2VmZWZlZjt9LmNscy0ze2ZpbGw6I2RjZGRkZDt9LmNscy00e2ZpbGw6bm9uZTtzdHJva2U6Z3JheTtzdHJva2Utd2lkdGg6MC42OHB4O308L3N0eWxlPjwvZGVmcz48dGl0bGU+6LWE5rqQIDE4PC90aXRsZT48ZyBpZD0i5Zu+5bGCXzIiIGRhdGEtbmFtZT0i5Zu+5bGCIDIiPjxnIGlkPSLlm77lsYJfMS0yIiBkYXRhLW5hbWU9IuWbvuWxgiAxIj48cG9seWdvbiBjbGFzcz0iY2xzLTEiIHBvaW50cz0iNDAuMzEgMTIuODYgMjAuMzYgMC40NiAwLjQgMTIuODYgMC4zOSAyNC4wNSAyMC4zNCAzNi40NiAyMC4zNyAzNi40NiA0MC4zMyAyNC4wNSA0MC4zMSAxMi44NiIvPjxwb2x5Z29uIGNsYXNzPSJjbHMtMiIgcG9pbnRzPSIyMC40IDM2LjQzIDAuNDUgMjQuMDIgMC40NiAxMi44NCAyMC40MiAyNS4yNCAyMC40IDM2LjQzIi8+PHBvbHlnb24gY2xhc3M9ImNscy0zIiBwb2ludHM9IjIwLjQzIDM2LjQzIDQwLjM4IDI0LjAyIDQwLjM3IDEyLjg0IDIwLjQyIDI1LjI0IDIwLjQzIDM2LjQzIi8+PHBvbHlnb24gY2xhc3M9ImNscy00IiBwb2ludHM9IjQwLjMxIDEyLjg2IDIwLjM2IDAuNDYgMC40IDEyLjg2IDAuMzkgMjQuMDUgMjAuMzQgMzYuNDYgMjAuMzcgMzYuNDYgNDAuMzMgMjQuMDUgNDAuMzEgMTIuODYiLz48L2c+PC9nPjwvc3ZnPg==;" vertex="1" parent="qlO1sHMZXiCxpGbSWCdw-63">
          <mxGeometry x="1" width="90" height="81.22" as="geometry"/>
        </mxCell>
        <mxCell id="qlO1sHMZXiCxpGbSWCdw-66" value="" style="shape=image;verticalLabelPosition=bottom;labelBackgroundColor=#ffffff;verticalAlign=top;aspect=fixed;imageAspect=0;image=data:image/svg+xml,PHN2ZyB4bWxucz0iaHR0cDovL3d3dy53My5vcmcvMjAwMC9zdmciIHhtbG5zOnhsaW5rPSJodHRwOi8vd3d3LnczLm9yZy8xOTk5L3hsaW5rIiB0PSIxNTQzNDc0MjI5NDcxIiBjbGFzcz0iaWNvbiIgc3R5bGU9IiIgdmlld0JveD0iMCAwIDEwMjQgMTAyNCIgdmVyc2lvbj0iMS4xIiBwLWlkPSIxNjM4OSIgd2lkdGg9IjUwIiBoZWlnaHQ9IjUwIj48ZGVmcz48c3R5bGUgdHlwZT0idGV4dC9jc3MiLz48L2RlZnM+PHBhdGggZD0iTTg2NC42NjEgOTAzLjUzSDE4MC42MDhjLTQwLjg1MyAwLTczLjk0MS0yOS41NjctNzMuOTQxLTcwLjUwNnYtODIuMDI3YzAtNDAuODUzIDMzLjA4OC03MC40NDIgNzMuOTQxLTcwLjQ0Mmg2ODQuMDc1YzQwLjg1MyAwIDczLjk4NCAyOS41ODkgNzMuOTg0IDcwLjQ0MnY4Mi4wMjdjLTAuMDIyIDQwLjkzOS0zMy4xMzEgNzAuNTA3LTc0LjAwNiA3MC41MDd6IG0tODIuNjI0LTE2NC45OWE1My41NDcgNTMuNTQ3IDAgMCAwLTUzLjU0NiA1My40ODIgNTMuNTkgNTMuNTkgMCAwIDAgNTMuNTQ2IDUzLjU0NyA1My41MjUgNTMuNTI1IDAgMCAwIDAtMTA3LjAwOHogbTgyLjYyNC0xMTEuMzE4SDE4MC42MDhjLTQwLjg1My0wLjAyMS03My45NDEtMjkuNTY4LTczLjk0MS03MC40NDJ2LTgyLjA3YzAtNDAuODUzIDMzLjA4OC03MC40NDIgNzMuOTQxLTcwLjQ0Mmg2ODQuMDc1YzQwLjg1MyAwIDczLjk4NCAyOS41NDYgNzMuOTg0IDcwLjQ0MnY4Mi4wN2MtMC4wMjIgNDAuODc0LTMzLjEzMSA3MC40NDItNzQuMDA2IDcwLjQ0MnpNNzgyLjAzNyA0NjIuMjNhNTMuNjEgNTMuNjEgMCAwIDAtNTMuNTQ2IDUzLjYxMSA1My42NTMgNTMuNjUzIDAgMCAwIDUzLjU0NiA1My41NDcgNTMuNTkgNTMuNTkgMCAxIDAgMC0xMDcuMTc5eiBtODIuNjI0LTExMS4xMDRIMTgwLjYwOGMtNDAuODUzIDAtNzMuOTQxLTI5LjY5Ni03My45NDEtNzAuNTI4di04MS45ODRjMC00MC45MTcgMzMuMDg4LTcwLjYxMyA3My45NDEtNzAuNjEzaDY4NC4wNzVjNDAuODUzIDAgNzMuOTg0IDI5LjY5NiA3My45ODQgNzAuNjM1djgxLjk4NGMtMC4wMjIgNDAuODEtMzMuMTMxIDcwLjUwNi03NC4wMDYgNzAuNTA2ek03ODIuMDM3IDE4Ni4wN2E1My41OSA1My41OSAwIDAgMC01My41NDYgNTMuNTQ3IDUzLjU0NyA1My41NDcgMCAwIDAgMTA3LjA5MyAwIDUzLjU0NyA1My41NDcgMCAwIDAtNTMuNTQ3LTUzLjU0N3oiIGZpbGw9IiMwMEMxREUiIHAtaWQ9IjE2MzkwIi8+PC9zdmc+;" vertex="1" parent="qlO1sHMZXiCxpGbSWCdw-63">
          <mxGeometry x="28" y="11" width="36" height="36" as="geometry"/>
        </mxCell>
        <mxCell id="qlO1sHMZXiCxpGbSWCdw-67" style="edgeStyle=orthogonalEdgeStyle;rounded=0;html=1;labelBackgroundColor=none;startFill=1;startSize=4;endArrow=blockThin;endFill=1;endSize=4;jettySize=auto;orthogonalLoop=1;strokeColor=#00c1de;strokeWidth=2;fontSize=12;fontColor=#000000;align=center;dashed=0;entryX=0.5;entryY=0;entryDx=0;entryDy=0;" edge="1" parent="1" target="qlO1sHMZXiCxpGbSWCdw-50">
          <mxGeometry relative="1" as="geometry">
            <mxPoint x="537.4285714285716" y="750" as="sourcePoint"/>
            <mxPoint x="537.4285714285716" y="964.2857142857142" as="targetPoint"/>
            <Array as="points">
              <mxPoint x="537" y="810"/>
              <mxPoint x="142" y="810"/>
            </Array>
          </mxGeometry>
        </mxCell>
        <mxCell id="qlO1sHMZXiCxpGbSWCdw-68" style="edgeStyle=orthogonalEdgeStyle;rounded=0;html=1;labelBackgroundColor=none;startFill=1;startSize=4;endArrow=blockThin;endFill=1;endSize=4;jettySize=auto;orthogonalLoop=1;strokeColor=#00C1DE;strokeWidth=2;fontSize=12;fontColor=#000000;align=center;dashed=0;entryX=0.5;entryY=0;entryDx=0;entryDy=0;" edge="1" parent="1" target="qlO1sHMZXiCxpGbSWCdw-8">
          <mxGeometry relative="1" as="geometry">
            <mxPoint x="536" y="750" as="sourcePoint"/>
            <mxPoint x="536" y="963" as="targetPoint"/>
            <Array as="points">
              <mxPoint x="536" y="810"/>
              <mxPoint x="279" y="810"/>
            </Array>
          </mxGeometry>
        </mxCell>
        <mxCell id="qlO1sHMZXiCxpGbSWCdw-69" style="edgeStyle=orthogonalEdgeStyle;rounded=0;html=1;labelBackgroundColor=none;startFill=1;startSize=4;endArrow=blockThin;endFill=1;endSize=4;jettySize=auto;orthogonalLoop=1;strokeColor=#00C1DE;strokeWidth=2;fontSize=12;fontColor=#000000;align=center;dashed=0;entryX=0.5;entryY=0;entryDx=0;entryDy=0;" edge="1" parent="1" target="qlO1sHMZXiCxpGbSWCdw-55">
          <mxGeometry relative="1" as="geometry">
            <mxPoint x="536" y="750" as="sourcePoint"/>
            <mxPoint x="536" y="963" as="targetPoint"/>
            <Array as="points">
              <mxPoint x="536" y="810"/>
              <mxPoint x="432" y="810"/>
            </Array>
          </mxGeometry>
        </mxCell>
        <mxCell id="qlO1sHMZXiCxpGbSWCdw-70" style="edgeStyle=orthogonalEdgeStyle;rounded=0;html=1;labelBackgroundColor=none;startFill=1;startSize=4;endArrow=blockThin;endFill=1;endSize=4;jettySize=auto;orthogonalLoop=1;strokeColor=#00C1DE;strokeWidth=2;fontSize=12;fontColor=#000000;align=center;dashed=0;entryX=0.5;entryY=0;entryDx=0;entryDy=0;" edge="1" parent="1" target="qlO1sHMZXiCxpGbSWCdw-14">
          <mxGeometry relative="1" as="geometry">
            <mxPoint x="536" y="760" as="sourcePoint"/>
            <mxPoint x="536" y="973" as="targetPoint"/>
            <Array as="points">
              <mxPoint x="536" y="810"/>
              <mxPoint x="786" y="810"/>
            </Array>
          </mxGeometry>
        </mxCell>
        <mxCell id="qlO1sHMZXiCxpGbSWCdw-71" style="edgeStyle=orthogonalEdgeStyle;rounded=0;html=1;labelBackgroundColor=none;startFill=1;startSize=4;endArrow=blockThin;endFill=1;endSize=4;jettySize=auto;orthogonalLoop=1;strokeColor=#00C1DE;strokeWidth=2;fontSize=12;fontColor=#000000;align=center;dashed=0;entryX=0.5;entryY=0;entryDx=0;entryDy=0;" edge="1" parent="1" target="qlO1sHMZXiCxpGbSWCdw-60">
          <mxGeometry relative="1" as="geometry">
            <mxPoint x="536" y="760" as="sourcePoint"/>
            <mxPoint x="536" y="973" as="targetPoint"/>
            <Array as="points">
              <mxPoint x="536" y="810"/>
              <mxPoint x="635" y="810"/>
            </Array>
          </mxGeometry>
        </mxCell>
        <mxCell id="qlO1sHMZXiCxpGbSWCdw-72" style="edgeStyle=orthogonalEdgeStyle;rounded=0;html=1;labelBackgroundColor=none;startFill=1;startSize=4;endArrow=blockThin;endFill=1;endSize=4;jettySize=auto;orthogonalLoop=1;strokeColor=#00c1de;strokeWidth=2;fontSize=12;fontColor=#000000;align=center;dashed=0;entryX=0.5;entryY=0;entryDx=0;entryDy=0;" edge="1" parent="1" target="qlO1sHMZXiCxpGbSWCdw-65">
          <mxGeometry relative="1" as="geometry">
            <mxPoint x="537.4285714285716" y="760" as="sourcePoint"/>
            <mxPoint x="537.4285714285716" y="974.2857142857142" as="targetPoint"/>
            <Array as="points">
              <mxPoint x="538" y="810"/>
              <mxPoint x="929" y="810"/>
            </Array>
          </mxGeometry>
        </mxCell>
        <mxCell id="qlO1sHMZXiCxpGbSWCdw-73" value="&lt;font style=&quot;font-size: 18px&quot;&gt;SLB VIP&lt;/font&gt;" style="text;html=1;resizable=0;points=[];autosize=1;align=left;verticalAlign=top;spacingTop=-4;" vertex="1" parent="1">
          <mxGeometry x="473" y="465" width="80" height="20" as="geometry"/>
        </mxCell>
        <mxCell id="qlO1sHMZXiCxpGbSWCdw-74" style="edgeStyle=orthogonalEdgeStyle;rounded=0;html=1;labelBackgroundColor=none;startFill=1;startSize=4;endArrow=blockThin;endFill=1;endSize=4;jettySize=auto;orthogonalLoop=1;strokeColor=#00c1de;strokeWidth=2;fontSize=12;fontColor=#000000;align=center;dashed=0;" edge="1" parent="1">
          <mxGeometry relative="1" as="geometry">
            <mxPoint x="517.4285714285716" y="250" as="sourcePoint"/>
            <mxPoint x="517.4285714285716" y="464.2857142857142" as="targetPoint"/>
            <Array as="points">
              <mxPoint x="516.5714285714284" y="357.1428571428569"/>
              <mxPoint x="516.5714285714284" y="357.1428571428569"/>
            </Array>
          </mxGeometry>
        </mxCell>
        <mxCell id="qlO1sHMZXiCxpGbSWCdw-75" value="&lt;font style=&quot;font-size: 18px&quot;&gt;用户流量&lt;/font&gt;" style="text;html=1;resizable=0;points=[];autosize=1;align=left;verticalAlign=top;spacingTop=-4;" vertex="1" parent="1">
          <mxGeometry x="480" y="277" width="90" height="20" as="geometry"/>
        </mxCell>
        <mxCell id="qlO1sHMZXiCxpGbSWCdw-76" style="edgeStyle=orthogonalEdgeStyle;rounded=0;html=1;labelBackgroundColor=none;startFill=1;startSize=4;endArrow=blockThin;endFill=1;endSize=4;jettySize=auto;orthogonalLoop=1;strokeColor=#00c1de;strokeWidth=2;fontSize=12;fontColor=#000000;align=center;dashed=0;entryX=0.813;entryY=0.003;entryDx=0;entryDy=0;entryPerimeter=0;" edge="1" parent="1" target="qlO1sHMZXiCxpGbSWCdw-4">
          <mxGeometry relative="1" as="geometry">
            <mxPoint x="517.4285714285716" y="490" as="sourcePoint"/>
            <mxPoint x="517.4285714285716" y="704.2857142857142" as="targetPoint"/>
            <Array as="points">
              <mxPoint x="518" y="530"/>
              <mxPoint x="404" y="530"/>
            </Array>
          </mxGeometry>
        </mxCell>
        <mxCell id="qlO1sHMZXiCxpGbSWCdw-77" value="&lt;font style=&quot;font-size: 18px&quot;&gt;正常情况下流量&lt;/font&gt;" style="text;html=1;resizable=0;points=[];autosize=1;align=left;verticalAlign=top;spacingTop=-4;" vertex="1" parent="1">
          <mxGeometry x="341" y="508" width="140" height="20" as="geometry"/>
        </mxCell>
        <mxCell id="qlO1sHMZXiCxpGbSWCdw-78" style="edgeStyle=orthogonalEdgeStyle;rounded=0;html=1;labelBackgroundColor=none;startFill=1;startSize=4;endArrow=blockThin;endFill=1;endSize=4;jettySize=auto;orthogonalLoop=1;strokeColor=#00c1de;strokeWidth=2;fontSize=12;fontColor=#000000;align=center;dashed=0;entryX=0.5;entryY=0;entryDx=0;entryDy=0;" edge="1" parent="1" target="qlO1sHMZXiCxpGbSWCdw-44">
          <mxGeometry relative="1" as="geometry">
            <mxPoint x="517.4285714285716" y="490" as="sourcePoint"/>
            <mxPoint x="517.4285714285716" y="704.2857142857142" as="targetPoint"/>
            <Array as="points">
              <mxPoint x="517" y="530"/>
              <mxPoint x="628" y="530"/>
            </Array>
          </mxGeometry>
        </mxCell>
        <mxCell id="qlO1sHMZXiCxpGbSWCdw-79" value="&lt;font style=&quot;font-size: 18px&quot;&gt;主用异常情况下流量&lt;/font&gt;" style="text;html=1;resizable=0;points=[];autosize=1;align=left;verticalAlign=top;spacingTop=-4;" vertex="1" parent="1">
          <mxGeometry x="533" y="506" width="180" height="20" as="geometry"/>
        </mxCell>
        <mxCell id="qlO1sHMZXiCxpGbSWCdw-80" style="edgeStyle=orthogonalEdgeStyle;rounded=0;html=1;labelBackgroundColor=none;startFill=1;startSize=4;endArrow=blockThin;endFill=1;endSize=4;jettySize=auto;orthogonalLoop=1;strokeColor=#9E9E9E;strokeWidth=2;fontSize=12;fontColor=#000000;align=center;dashed=0;entryX=0;entryY=0;entryDx=0;entryDy=90;entryPerimeter=0;" edge="1" parent="1" target="qlO1sHMZXiCxpGbSWCdw-4">
          <mxGeometry relative="1" as="geometry">
            <mxPoint x="836" y="410" as="sourcePoint"/>
            <mxPoint x="836" y="623" as="targetPoint"/>
            <Array as="points">
              <mxPoint x="836" y="692"/>
            </Array>
          </mxGeometry>
        </mxCell>
      </root>
    </mxGraphModel>
  </diagram>
</mxfile>
